<?xml version="1.0" encoding="utf-8"?>
<!-- Generator: Adobe Illustrator 21.0.0, SVG Export Plug-In . SVG Version: 6.00 Build 0)  -->
<svg version="1.1" id="图层_1" xmlns="http://www.w3.org/2000/svg" xmlns:xlink="http://www.w3.org/1999/xlink" x="0px" y="0px"
	 viewBox="0 0 48 48" style="enable-background:new 0 0 48 48;" xml:space="preserve">
<style type="text/css">
	.st0{fill:none;}
</style>
<rect class="st0" width="48" height="48"/>
<g>
	<path d="M27.6,13.9l0.4,0l0.2,0l0.1,0l0,0l0,0l0,0l0.1,0c0.1,0,0.3,0,0.4,0c0.1,0,0.1,0,0.2,0l0.2,0c0.1,0,0.3,0,0.4,0
		c0,0,0.1,0,0.1,0l0.1,0l0.2,0c0.1,0,0.3,0,0.4,0.1c0.1,0,0.3,0.1,0.4,0.1l0.2,0l0.1,0l0.1,0c0.1,0,0.3,0.1,0.4,0.1
		c0.1,0,0.1,0,0.2,0c0.1,0,0.1,0,0.2,0.1c0,0,0.1,0,0.1,0v-0.5c-0.1,0-0.3-0.1-0.4-0.1c-1.1-0.2-2.3-0.3-3.4-0.3
		c-1.2,0-2.3,0.1-3.5,0.3c-0.2,0-0.4,0.1-0.6,0.1l0.3,0.4c0.8-0.2,1.6-0.3,2.4-0.3C27.3,13.9,27.4,13.9,27.6,13.9z"/>
	<path d="M28.5,27v0.3c0.1,0.1,0.2,0.2,0.3,0.2h0.4C28.9,27.4,28.7,27.2,28.5,27z"/>
	<path d="M27.8,40.3l-2.7-3.9c0.1,0.1,0.1,0.2,0.2,0.3C26,37.9,26.8,39.2,27.8,40.3z"/>
	<path d="M28.5,13.1c1.2,0,2.4,0.1,3.5,0.3c0.1,0,0.2,0,0.3,0.1V12c0,0-0.1,0-0.1,0c-0.2,0-0.4,0-0.6,0c-0.8,0-1.6,0.1-2.5,0.2
		c-0.2,0-0.4,0-0.6,0.1c-0.2,0-0.4,0-0.7,0.1c-0.4,0.1-0.9,0.1-1.3,0.2c-0.9,0.1-1.8,0.3-2.7,0.5c0,0-0.1,0-0.1,0l0.3,0.4
		c0.3,0,0.6-0.1,0.9-0.1C26.2,13.2,27.4,13.1,28.5,13.1z"/>
	<path d="M25.4,23.3c0-0.1-0.1-0.1-0.1-0.1c0,0-0.1-0.1-0.1-0.1c-0.1-0.1-0.2-0.2-0.2-0.3c-0.1-0.1-0.2-0.2-0.4-0.3v0.8
		c0,0,0.1,0.1,0.1,0.1l0.1,0.2c0,0,0,0.1,0.1,0.1h0.8C25.5,23.5,25.5,23.4,25.4,23.3z"/>
	<path d="M40.5,4.8c0,0.1,0.1,0.2,0.1,0.3c0.1,0.1,0.1,0.2,0.2,0.3c0.1,0.2,0.3,0.3,0.6,0.3c0.2,0,0.5,0,0.8-0.1
		c0.3-0.1,0.6-0.2,0.8-0.3c0.3-0.1,0.6-0.2,0.9-0.4c0.3-0.1,0.6-0.3,0.9-0.4c0.3-0.1,0.6-0.2,0.8-0.4c0.2-0.1,0.4-0.2,0.6-0.3h-2.1
		V0h-3.9v3.9c0,0,0.1,0.1,0.2,0.4C40.3,4.5,40.4,4.6,40.5,4.8z"/>
	<path d="M38.4,5.4C38.6,5.7,38.8,6,39,6.2c0.2,0.2,0.5,0.5,0.8,0.6c0.3,0.1,0.6,0.1,0.9,0.1c0.3,0,0.6-0.1,0.9-0.2
		c0.3-0.1,0.6-0.2,0.8-0.3c0.5-0.2,1-0.5,1.5-0.7c0.9-0.5,1.7-0.9,2.4-1.3c0.3-0.2,0.6-0.3,0.8-0.5h-0.3c-0.1,0.1-0.3,0.2-0.4,0.2
		c-0.2,0.1-0.5,0.3-0.8,0.4c-0.3,0.1-0.5,0.3-0.8,0.4c-0.3,0.1-0.6,0.3-0.9,0.4c-0.3,0.1-0.6,0.2-0.9,0.4c-0.1,0.1-0.3,0.1-0.4,0.1
		c-0.2,0-0.3,0.1-0.5,0.1c-0.3,0.1-0.6,0.1-0.9,0c-0.2,0-0.3-0.1-0.4-0.2c-0.1-0.1-0.2-0.2-0.3-0.3c-0.1-0.2-0.2-0.4-0.3-0.6
		c-0.1-0.2-0.1-0.4-0.1-0.5c0-0.1,0-0.2-0.1-0.3c0-0.1,0-0.1,0-0.1h-2.4c0.1,0.2,0.2,0.3,0.3,0.5C38.1,4.8,38.3,5.1,38.4,5.4z"/>
	<path d="M44,5.8c-0.5,0.2-1,0.5-1.5,0.8c-0.3,0.1-0.5,0.2-0.8,0.3c-0.3,0.1-0.6,0.2-0.9,0.2c-0.3,0-0.7,0-1-0.1
		c-0.2-0.1-0.3-0.1-0.5-0.3c-0.1-0.1-0.3-0.2-0.4-0.4c-0.2-0.3-0.4-0.6-0.6-0.9c-0.2-0.3-0.4-0.6-0.5-1c-0.1-0.2-0.2-0.4-0.3-0.7
		h-1.1v3.9h3.9v3.9h3.9V7.9H48V3.9h-0.7c-0.3,0.2-0.6,0.3-0.9,0.5C45.7,4.8,44.9,5.3,44,5.8z"/>
	<path d="M4.1,3C4.6,3,5.1,3.2,5.6,3.4c0.5,0.2,1,0.5,1.5,0.8c0.1,0,0.1,0.1,0.2,0.1c0.1,0,0.1,0.1,0.2,0.1c0.1,0.1,0.2,0.2,0.4,0.3
		c0.1,0,0.1,0.1,0.2,0.1c0.1,0,0.1,0.1,0.2,0.1C8.2,5,8.3,5,8.4,5.1c0,0,0.1,0,0.1,0.1l0.1,0.1C9.1,5.5,9.7,5.8,10.4,6
		c0.7,0.2,1.4,0.3,2.1,0.3c0.7,0,1.5,0,2.2-0.2C15.4,6,16.2,5.8,17,5.6c0.5-0.1,1-0.3,1.5-0.5L14.9,0H0l2.1,3C2.3,3,2.6,2.9,2.9,2.9
		C3.3,2.9,3.7,2.9,4.1,3z"/>
	<polygon points="20.7,26.2 20.6,26.2 20.6,26.2 	"/>
	<path d="M33.9,12c-0.3,0-0.7,0-1.1,0c-0.1,0-0.3,0-0.4,0v1.5c0,0,0.1,0,0.1,0c0.1,0,0.3,0.1,0.4,0.1c0.3,0.1,0.6,0.2,0.8,0.3
		c0.1,0,0.1,0.1,0.2,0.1l0.1,0l0,0l0.1,0c0.1,0.1,0.3,0.1,0.4,0.2c0.1,0.1,0.3,0.1,0.4,0.2c0.1,0,0.1,0.1,0.2,0.1
		c0.1,0,0.1,0.1,0.2,0.1c0.1,0.1,0.2,0.1,0.4,0.2c0.1,0.1,0.2,0.1,0.4,0.2c0.1,0.1,0.2,0.1,0.3,0.2v-3.3c-0.2,0-0.4,0-0.6,0
		C35.2,11.9,34.6,11.9,33.9,12z"/>
	<path d="M28.3,26.8c-0.4-0.4-0.7-0.7-1.1-1.1c-0.3-0.4-0.7-0.8-1-1.2c-0.2-0.2-0.3-0.4-0.5-0.6c-0.1-0.1-0.1-0.2-0.2-0.3h-0.8
		c0,0.1,0.1,0.1,0.1,0.2c0.2,0.2,0.3,0.4,0.5,0.6c0.3,0.4,0.7,0.8,1.1,1.1c0.6,0.6,1.3,1.2,2,1.8V27C28.4,27,28.3,26.9,28.3,26.8z"
		/>
	<path d="M35.5,30.6c-0.1,0-0.2,0-0.3-0.1c0,0-0.1,0-0.1,0c0,0-0.1,0-0.1,0c-0.2,0-0.4-0.1-0.6-0.1c-0.2-0.1-0.4-0.1-0.6-0.2
		c-0.2-0.1-0.4-0.1-0.6-0.2c-0.8-0.3-1.7-0.7-2.5-1.3c-0.1-0.1-0.2-0.1-0.3-0.2c-0.1-0.1-0.2-0.1-0.3-0.2l-0.2-0.1l-0.1-0.1
		c-0.1-0.1-0.2-0.1-0.3-0.2c-0.1-0.1-0.2-0.2-0.3-0.2h-0.4c0,0,0,0,0,0c0.2,0.2,0.4,0.3,0.6,0.5c0.2,0.1,0.4,0.3,0.6,0.4
		c0.4,0.3,0.8,0.5,1.2,0.8c0.8,0.5,1.7,0.9,2.5,1.2c0.4,0.2,0.8,0.3,1.2,0.4c0.4,0.1,0.8,0.2,1.2,0.3c0.1,0,0.2,0,0.3,0.1l-0.4-0.6
		c-0.1,0-0.2,0-0.3,0C35.7,30.6,35.6,30.6,35.5,30.6z"/>
	<path d="M21.3,27.9C21.3,27.9,21.3,27.9,21.3,27.9C21.3,27.9,21.3,27.9,21.3,27.9L21.3,27.9L21.3,27.9
		C21.3,27.9,21.3,27.9,21.3,27.9C21.3,27.9,21.3,27.9,21.3,27.9z"/>
	<path d="M30.1,27.8l0.1,0.1c0.1,0.1,0.2,0.1,0.3,0.2c0.1,0.1,0.2,0.1,0.3,0.2c0.8,0.5,1.6,0.9,2.4,1.3c0.8,0.3,1.6,0.6,2.3,0.7
		c0.1,0,0.2,0,0.3,0.1c0,0,0,0,0,0l-3.5-5v2.2h-2.6c0.1,0,0.1,0.1,0.2,0.1L30.1,27.8z"/>
	<path d="M26.6,24.3c0.3,0.4,0.6,0.8,0.9,1.2c0.3,0.3,0.6,0.7,0.9,1v-2.8h-2.3c0,0,0,0,0,0C26.3,23.9,26.5,24.1,26.6,24.3z"/>
	<path d="M20,23.1c0.2-0.1,0.4-0.1,0.7-0.2c0.2-0.1,0.4-0.1,0.7-0.1c0.1,0,0.1,0,0.2,0c0.1,0,0.2,0,0.2,0c0.1,0,0.1,0,0.2,0
		c0.1,0,0.1,0,0.2,0.1c0.2,0.1,0.5,0.2,0.7,0.3c0.2,0.1,0.4,0.2,0.6,0.3c0.1,0,0.1,0.1,0.2,0.1l0.1,0l0,0l0,0l0,0l0,0c0,0,0,0,0,0
		l0.1,0c0,0,0.1,0,0.1,0.1c0,0,0.1,0,0.1,0.1c0,0,0.1,0.1,0.1,0.1c0.2,0.2,0.3,0.4,0.4,0.7c0.1,0.2,0.2,0.5,0.3,0.7
		c0.2,0.5,0.4,0.9,0.7,1.3c0.3,0.4,0.5,0.8,0.8,1.2c0.2,0.2,0.3,0.4,0.5,0.6l0.1,0.1l0,0l0,0l0.1,0.1c0.1,0.1,0.2,0.2,0.3,0.3
		c0.3,0.4,0.7,0.7,1.1,1c0.8,0.6,1.5,1.2,2.4,1.7c0.2,0.1,0.4,0.2,0.6,0.3c0.2,0.1,0.4,0.2,0.6,0.3c0.1,0,0.2,0.1,0.3,0.1
		c0.1,0,0.2,0.1,0.3,0.1c0.1,0,0.2,0.1,0.3,0.1c0.1,0,0.2,0.1,0.3,0.1c0.1,0,0.2,0.1,0.3,0.1c0.1,0,0.2,0.1,0.3,0.1
		c0.1,0,0.2,0.1,0.3,0.1c0.1,0,0.2,0.1,0.3,0.1c0,0,0.1,0,0.1,0c0,0,0.1,0,0.1,0c0.1,0,0.2,0,0.3,0.1c0.2,0,0.4,0.1,0.6,0.1
		c0.2,0,0.4,0,0.6,0.1c0.2,0,0.4,0,0.5,0c0.2,0,0.3,0,0.5,0c0.2,0,0.3,0,0.5,0c0.1,0,0.2,0,0.3,0l-1.4-2c-0.2,0-0.4,0-0.5-0.1
		c-0.8-0.1-1.6-0.3-2.5-0.6c-0.9-0.3-1.7-0.7-2.6-1.2c-0.4-0.2-0.9-0.5-1.3-0.8c-0.2-0.1-0.4-0.3-0.6-0.4c-0.2-0.1-0.4-0.3-0.6-0.5
		c-0.8-0.6-1.6-1.3-2.4-2.1c-0.4-0.4-0.7-0.8-1.1-1.1c-0.2-0.2-0.3-0.4-0.5-0.6c0-0.1-0.1-0.1-0.1-0.2c0,0,0-0.1-0.1-0.1
		c0,0,0-0.1-0.1-0.1l-0.1-0.2c0-0.1-0.1-0.1-0.1-0.1c-0.1-0.2-0.3-0.3-0.5-0.5c-0.2-0.1-0.4-0.2-0.6-0.4c-0.2-0.1-0.4-0.2-0.7-0.4
		c-0.1,0-0.1-0.1-0.2-0.1l0,0l0,0l0,0l0,0c0,0,0,0-0.1,0c-0.1,0-0.2-0.1-0.3-0.1c-0.2,0-0.5,0-0.7,0c-0.2,0-0.5,0-0.7,0.1
		c-0.5,0.1-0.9,0.2-1.3,0.3c-0.4,0.1-0.8,0.2-1.3,0.3c-0.4,0.1-0.8,0.2-1.2,0.4c-0.2,0.1-0.4,0.1-0.6,0.2l0.5,0.8
		c0.3-0.1,0.7-0.2,1.1-0.3C18.4,23.5,19.2,23.3,20,23.1z"/>
	<path d="M18.8,25.9c0.6-0.3,1.2-0.5,1.8-0.8c0.2-0.1,0.3-0.1,0.5-0.2l0.1,0c0,0,0.1,0,0.1,0l0.1,0c0,0,0,0,0,0l0,0c0,0,0,0,0,0
		l0.1,0l0,0l0,0l0.1,0l0.1,0c0,0,0.1,0,0.1,0c0.1,0,0.2,0.1,0.3,0.1c0.2,0.1,0.4,0.2,0.5,0.3l0.1,0l0.1,0c0,0,0.1,0.1,0.1,0.1
		c0,0,0,0,0.1,0.1c0,0,0,0,0.1,0.1c0,0,0.1,0.1,0.1,0.1l0,0c0,0,0,0,0,0l0,0c0,0,0,0,0,0.1c0,0,0,0.1,0,0.1l0,0.1c0,0.1,0,0.2,0,0.3
		c0,0.4,0.1,0.7,0.1,1.1c0.1,0.8,0.2,1.5,0.3,2.3c0.1,0.8,0.3,1.6,0.5,2.3c0.1,0.4,0.2,0.8,0.3,1.2c0.1,0.4,0.2,0.8,0.4,1.2
		c0.1,0.4,0.3,0.8,0.5,1.1c0.2,0.4,0.4,0.7,0.6,1.1c0.2,0.4,0.4,0.7,0.7,1c0.2,0.3,0.5,0.7,0.8,1c0.5,0.6,1.2,1.1,1.9,1.6
		c0.3,0.2,0.7,0.4,1.1,0.6c0.4,0.2,0.8,0.3,1.1,0.4c0.4,0.1,0.8,0.2,1.2,0.3c0.2,0,0.4,0.1,0.6,0.1c0.1,0,0.2,0,0.3,0
		c0.1,0,0.2,0,0.3,0c0.1,0,0.2,0,0.3,0l0.1,0l0,0l0,0l0.1,0c0.1,0,0.2,0,0.3,0c0.1,0,0.2,0,0.3,0c0.4,0,0.8-0.1,1.2-0.1
		c1.5-0.2,3-0.7,4.3-1.3c0.3-0.2,0.6-0.3,0.9-0.5c0.2-0.1,0.4-0.2,0.5-0.3l-2.1-3.1c-0.1,0.1-0.3,0.1-0.4,0.2
		c-0.1,0.1-0.2,0.1-0.3,0.2c-0.1,0-0.2,0.1-0.4,0.1c-0.1,0.1-0.2,0.1-0.4,0.1c-0.1,0-0.2,0.1-0.4,0.1c-0.1,0-0.3,0.1-0.4,0.1
		c-0.1,0-0.3,0.1-0.4,0.1c-0.1,0-0.1,0-0.2,0c-0.1,0-0.1,0-0.2,0c-0.1,0-0.1,0-0.2,0l-0.1,0l-0.1,0c-0.1,0-0.3,0-0.4,0.1
		c-0.1,0-0.3,0-0.4,0c-0.1,0-0.1,0-0.2,0c-0.1,0-0.1,0-0.2,0c-0.1,0-0.3,0-0.4,0c-0.2,0-0.3,0-0.5,0l-0.1,0c0,0-0.1,0-0.1,0
		c-0.1,0-0.1,0-0.2,0c-0.1,0-0.1,0-0.2,0l-0.1,0l0,0l0,0l0,0l-0.1,0c-0.1,0-0.2,0-0.2,0c-0.1,0-0.2,0-0.2,0
		c-1.2-0.3-2.4-0.8-3.4-1.7c-1-0.8-1.9-1.9-2.6-3c-0.7-1.1-1.3-2.3-1.9-3.5c-0.3-0.6-0.5-1.2-0.7-1.8c-0.2-0.6-0.4-1.2-0.6-1.8
		c0-0.1-0.1-0.1-0.1-0.2c0,0,0-0.1,0-0.1c0,0,0,0,0-0.1c0,0-0.1-0.1-0.1-0.1c0-0.1-0.1-0.1-0.2-0.2c-0.2-0.2-0.4-0.4-0.7-0.5
		l-0.1-0.1l-0.1-0.1c-0.1,0-0.1-0.1-0.2-0.1c0,0-0.1,0-0.1,0c0,0-0.1,0-0.1,0l-0.1,0c0,0-0.1,0-0.1,0l0,0l-0.1,0l-0.1,0l0,0
		c0,0,0,0,0,0l0,0c0,0,0,0,0,0l0,0c0,0-0.1,0-0.1,0c-0.1,0-0.3,0.1-0.4,0.1c-0.5,0.2-1.1,0.3-1.6,0.5c-0.5,0.2-1,0.3-1.5,0.5
		c-0.9,0.3-1.8,0.5-2.6,0.7l-1.4,2.1c0.5-0.2,1.1-0.4,1.7-0.6C16.6,26.8,17.6,26.4,18.8,25.9z"/>
	<path d="M16.7,19.7c0.8-0.3,1.6-0.5,2.4-0.7c0.4-0.1,0.9-0.2,1.3-0.3c0.5-0.1,0.9-0.1,1.4-0.2c0.5,0,1,0,1.4,0.1
		c0.2,0.1,0.5,0.1,0.7,0.3c0.2,0.1,0.4,0.3,0.6,0.5c0,0,0,0.1,0.1,0.1l0.1,0.1l0.1,0.1h1.2c-0.1-0.1-0.3-0.3-0.4-0.4
		c-0.2-0.1-0.3-0.3-0.5-0.4c-0.1-0.1-0.2-0.2-0.2-0.2c-0.1-0.1-0.1-0.1-0.2-0.2c-0.3-0.2-0.7-0.4-1.1-0.5c-0.4-0.1-0.8-0.2-1.2-0.2
		c-0.4,0-0.8,0-1.2,0.1c-0.4,0.1-0.8,0.1-1.2,0.2c-0.2,0-0.4,0.1-0.6,0.1c-0.2,0.1-0.4,0.1-0.6,0.2c-0.8,0.2-1.5,0.5-2.2,0.7
		c-0.4,0.1-0.7,0.2-1,0.4c-0.3,0.1-0.6,0.2-0.9,0.3c-0.3,0.1-0.5,0.2-0.8,0.3l0.4,0.6c0.1,0,0.2-0.1,0.3-0.1
		C15.2,20.2,15.9,20,16.7,19.7z"/>
	<path d="M17.6,16.5c0.9-0.4,1.9-0.8,2.9-1.1c0.3-0.1,0.5-0.2,0.8-0.3c0.3-0.1,0.5-0.2,0.8-0.2c0.1,0,0.3-0.1,0.4-0.1
		c0.1,0,0.3-0.1,0.4-0.1c0.1,0,0.3-0.1,0.4-0.1c0.1,0,0.3-0.1,0.4-0.1c0.3-0.1,0.7-0.1,1-0.2l-0.3-0.4c-0.9,0.1-1.8,0.3-2.7,0.5
		c-1.1,0.2-2.1,0.5-3.1,0.7c-0.5,0.1-1,0.3-1.4,0.4c-0.5,0.1-0.9,0.3-1.3,0.4c-0.8,0.3-1.6,0.5-2.3,0.7c-0.7,0.2-1.3,0.4-1.7,0.6
		l1,1.5c0.6-0.3,1.3-0.7,2.1-1.1C15.8,17.3,16.7,16.9,17.6,16.5z"/>
	<path d="M16.5,18.7c0.7-0.3,1.4-0.5,2.2-0.8c0.2-0.1,0.4-0.1,0.6-0.2c0.2-0.1,0.4-0.1,0.6-0.2c0.4-0.1,0.8-0.2,1.3-0.2
		c0.4-0.1,0.9-0.1,1.3-0.1c0.4,0,0.9,0.1,1.3,0.2c0.4,0.1,0.9,0.3,1.2,0.6c0.1,0.1,0.2,0.1,0.3,0.2c0.1,0.1,0.2,0.2,0.2,0.2
		c0.2,0.2,0.3,0.3,0.5,0.5c0.2,0.2,0.5,0.5,0.7,0.7h1.8v0h3.9v3.9h3.9v-3.9h-3.9v-3.9h2.7c-0.4-0.2-0.9-0.4-1.3-0.5
		c-0.1,0-0.3-0.1-0.4-0.1c-0.1,0-0.3-0.1-0.4-0.1c-0.1,0-0.1,0-0.2-0.1l-0.1,0l-0.1,0c-0.1,0-0.1,0-0.2-0.1v0.9h-3.9v3.9l-3.5-5
		c-0.4,0.1-0.8,0.2-1.2,0.2c-1.1,0.3-2.2,0.6-3.2,0.9c-1,0.3-2,0.7-2.9,1.1c-0.9,0.4-1.8,0.7-2.6,1.1c-0.8,0.4-1.5,0.7-2.1,1
		l0.6,0.9c0.3-0.1,0.5-0.2,0.8-0.3C15.1,19.2,15.8,19,16.5,18.7z"/>
	<path d="M19.2,20.8c0.4-0.1,0.9-0.2,1.3-0.2c0.5-0.1,0.9-0.1,1.5-0.1c0.1,0,0.3,0,0.4,0.1l0.1,0c0,0,0.1,0,0.1,0
		c0.1,0,0.1,0.1,0.2,0.1c0.2,0.1,0.4,0.3,0.6,0.4c0.4,0.2,0.8,0.5,1.2,0.8v-1.8c0,0-0.1-0.1-0.1-0.1l-0.1-0.2l0-0.1l0-0.1
		c-0.2-0.3-0.6-0.5-1.1-0.6c-0.4-0.1-0.9-0.1-1.3-0.1c-0.9,0-1.8,0.2-2.6,0.4c-0.8,0.2-1.7,0.4-2.4,0.7c-0.8,0.2-1.5,0.5-2.2,0.7
		c-0.1,0-0.2,0.1-0.3,0.1l0.7,1c0.5-0.1,1.1-0.3,1.7-0.5C17.5,21.1,18.3,20.9,19.2,20.8z"/>
	<path d="M14.3,15.6c0.6-0.3,1.3-0.6,2.1-0.8c0.7-0.3,1.5-0.6,2.3-0.8c0.2-0.1,0.4-0.1,0.6-0.2c0.2-0.1,0.4-0.1,0.6-0.2
		c0.1,0,0.2-0.1,0.3-0.1c0.1,0,0.2-0.1,0.3-0.1c0.2-0.1,0.4-0.1,0.7-0.2c0.4-0.1,0.9-0.2,1.3-0.3c0.3-0.1,0.7-0.2,1.1-0.2l-0.5-0.7
		c-0.3,0.1-0.7,0.2-1,0.3c-0.4,0.1-0.9,0.3-1.3,0.4c-0.8,0.3-1.7,0.6-2.5,0.9c-0.8,0.3-1.6,0.6-2.3,0.9c-0.2,0.1-0.4,0.2-0.5,0.2
		c-0.2,0.1-0.3,0.2-0.5,0.2c-0.2,0.1-0.3,0.2-0.5,0.2c-0.2,0.1-0.3,0.2-0.5,0.2c-0.3,0.1-0.6,0.3-0.9,0.4C13,15.9,12.9,16,12.8,16
		c-0.1,0.1-0.3,0.1-0.4,0.2c-0.3,0.2-0.6,0.3-0.9,0.5l0.1,0.2c0.3-0.1,0.6-0.3,0.9-0.5C13.1,16.2,13.6,15.9,14.3,15.6z"/>
	<path d="M5,6.4c0.1,0,0.1,0,0.2,0c0.1,0,0.1,0,0.2,0c0.5,0,1,0,1.5,0.1c0.5,0.1,1.1,0.2,1.6,0.4c0.1,0,0.3,0.1,0.4,0.1
		C8.9,7,9,7.1,9.2,7.1c0.1,0,0.1,0,0.2,0.1c0.1,0,0.1,0,0.2,0.1c0.1,0,0.3,0.1,0.4,0.1c0.6,0.1,1.1,0.2,1.7,0.2c0.3,0,0.6,0,0.9,0
		c0.3,0,0.6-0.1,0.9-0.1c0.6-0.1,1.1-0.2,1.7-0.4c0.5-0.2,1-0.3,1.5-0.5c0.1,0,0.2-0.1,0.4-0.1c0.1,0,0.2-0.1,0.3-0.1
		C17.6,6.1,17.8,6.1,18,6c0.3-0.1,0.6-0.2,0.8-0.3l-0.1-0.2c-0.5,0.2-1.1,0.3-1.6,0.5c-1.6,0.4-3.1,0.7-4.6,0.6
		c-0.7,0-1.5-0.1-2.2-0.3C9.6,6.1,9,5.8,8.4,5.4L8.3,5.4c0,0-0.1,0-0.1-0.1C8.2,5.2,8.1,5.2,8,5.1C8,5.1,7.9,5,7.8,5
		C7.8,5,7.7,4.9,7.7,4.9C7.5,4.8,7.4,4.7,7.3,4.6C7.2,4.5,7.1,4.4,6.9,4.3C6.5,4,6,3.7,5.5,3.5C5,3.3,4.6,3.2,4.1,3.1
		C3.7,3,3.3,3,2.9,3C2.6,3,2.3,3,2.1,3.1l2.4,3.4c0.1,0,0.1,0,0.2,0C4.8,6.5,4.9,6.4,5,6.4z"/>
	<path d="M19.3,24.3c0.2-0.1,0.5-0.2,0.8-0.3c0.3-0.1,0.5-0.2,0.8-0.3c0.1,0,0.3-0.1,0.4-0.1c0,0,0.1,0,0.1,0l0.1,0c0,0,0,0,0.1,0
		l0,0c0,0,0,0,0,0l0,0l0.1,0l0.1,0l0.1,0c0,0,0.1,0,0.1,0l0.1,0c0,0,0.1,0,0.1,0c0,0,0.1,0,0.1,0c0.1,0,0.1,0.1,0.2,0.1l0.1,0.1
		l0.1,0.1c0.3,0.2,0.5,0.4,0.7,0.6c0.1,0.1,0.1,0.1,0.2,0.2c0.1,0.1,0.1,0.1,0.2,0.2c0,0,0,0.1,0.1,0.1c0,0,0,0.1,0.1,0.1
		c0,0.1,0.1,0.1,0.1,0.2c0.1,0.3,0.2,0.6,0.3,0.9c0.1,0.3,0.2,0.6,0.3,0.9c0.2,0.6,0.5,1.2,0.7,1.8c0.5,1.2,1.1,2.3,1.8,3.4
		c0.7,1.1,1.5,2.1,2.5,2.9c0.5,0.4,1,0.7,1.6,1c0.5,0.3,1.1,0.5,1.7,0.6c0.1,0,0.1,0,0.2,0c0.1,0,0.1,0,0.2,0l0.1,0l0,0c0,0,0,0,0,0
		l0,0l0.1,0c0.1,0,0.2,0,0.2,0c0.3,0,0.6,0,0.9,0.1c0.1,0,0.3,0,0.4,0c0.1,0,0.1,0,0.2,0c0.1,0,0.1,0,0.2,0c0.1,0,0.3,0,0.4,0
		c0.1,0,0.3,0,0.4,0c1.1-0.1,2.1-0.5,3-0.8c0.1-0.1,0.2-0.1,0.4-0.2l-1.5-2.2c-0.1,0-0.2,0-0.4,0c-0.6,0.1-1.3,0.1-2.1,0
		c-0.8-0.1-1.6-0.2-2.5-0.5c-0.1,0-0.2-0.1-0.3-0.1c-0.1,0-0.2-0.1-0.3-0.1c-0.1,0-0.2-0.1-0.3-0.1c-0.1,0-0.2-0.1-0.3-0.1
		c-0.2-0.1-0.4-0.2-0.6-0.3c-0.2-0.1-0.4-0.2-0.6-0.3c-0.4-0.2-0.8-0.5-1.2-0.8c-0.1-0.1-0.2-0.1-0.3-0.2L28.9,31l-0.1-0.1
		c-0.2-0.2-0.4-0.3-0.6-0.5c-0.4-0.3-0.8-0.7-1.1-1.1c-0.1-0.1-0.2-0.2-0.3-0.3l-0.1-0.1l0,0l0,0l-0.1-0.1c-0.2-0.2-0.3-0.4-0.5-0.6
		c-0.3-0.4-0.6-0.8-0.9-1.3c-0.3-0.5-0.5-0.9-0.7-1.4c-0.1-0.2-0.2-0.5-0.3-0.7c-0.1-0.2-0.2-0.4-0.4-0.6c0,0,0,0-0.1-0.1
		c0,0,0,0-0.1-0.1c0,0,0,0-0.1,0l0,0c0,0,0,0,0,0l0,0l0,0l0,0c0,0,0,0,0,0l0,0l-0.1,0c-0.1,0-0.1-0.1-0.2-0.1
		c-0.2-0.1-0.4-0.2-0.7-0.3c-0.2-0.1-0.4-0.2-0.6-0.3c-0.1,0-0.1,0-0.2-0.1c-0.1,0-0.1,0-0.2,0l0,0l0,0c0,0,0,0,0,0c0,0,0,0,0,0l0,0
		c0,0,0,0,0,0l0,0c0,0-0.1,0-0.2,0c-0.2,0-0.4,0.1-0.7,0.1c-0.2,0-0.4,0.1-0.7,0.1c-0.4,0.1-0.8,0.2-1.2,0.3
		c-0.4,0.1-0.8,0.2-1.2,0.3c-0.5,0.1-0.9,0.2-1.3,0.3l-0.9,1.3c0.7-0.2,1.5-0.5,2.3-0.7C18.3,24.6,18.8,24.5,19.3,24.3z"/>
	<path d="M13.9,15.2c0.6-0.3,1.3-0.7,2-1c0.7-0.3,1.5-0.7,2.3-1c0.2-0.1,0.4-0.2,0.6-0.2c0.2-0.1,0.4-0.2,0.6-0.2
		c0.1,0,0.2-0.1,0.3-0.1c0.1,0,0.2-0.1,0.3-0.1c0.2-0.1,0.4-0.2,0.6-0.2c0.4-0.1,0.9-0.3,1.3-0.4c0.3-0.1,0.6-0.2,0.8-0.3l-3.9-5.6
		c-0.3,0.1-0.5,0.2-0.8,0.4c-0.4,0.2-0.9,0.4-1.3,0.6c-0.5,0.2-1,0.4-1.5,0.5c-0.5,0.2-1.1,0.3-1.7,0.4c-0.3,0.1-0.6,0.1-0.9,0.1
		c-0.3,0-0.6,0-0.9,0c-0.3,0-0.6,0-0.9-0.1c-0.3,0-0.6-0.1-0.9-0.2C9.6,7.7,9.3,7.6,9,7.5c-0.1,0-0.3-0.1-0.4-0.1
		c-0.1,0-0.3-0.1-0.4-0.1C7.7,7,7.2,6.9,6.7,6.8C6.5,6.7,6.2,6.7,6,6.7c-0.1,0-0.2,0-0.3,0c-0.1,0-0.2,0-0.3,0c-0.2,0-0.4,0-0.6,0
		c0,0,0,0-0.1,0l6.8,9.9c0.3-0.2,0.5-0.3,0.8-0.5C12.8,15.8,13.3,15.5,13.9,15.2z"/>
	<path d="M19,22c0.4-0.1,0.9-0.2,1.4-0.3c0.2,0,0.5-0.1,0.7-0.1c0.2,0,0.5,0,0.8,0c0.1,0,0.3,0,0.4,0.1c0,0,0.1,0,0.1,0l0.1,0l0,0
		c0.1,0,0.1,0.1,0.2,0.1c0.2,0.1,0.4,0.2,0.6,0.4c0.2,0.1,0.5,0.2,0.7,0.4c0.2,0.1,0.4,0.3,0.6,0.6c0,0,0,0,0,0v-0.8
		c-0.1-0.1-0.1-0.1-0.2-0.1c-0.4-0.3-0.8-0.5-1.2-0.8c-0.2-0.1-0.4-0.3-0.6-0.4c-0.2-0.1-0.4-0.2-0.6-0.2c-0.2,0-0.5,0-0.7,0
		c-0.2,0-0.5,0-0.7,0.1c-0.5,0-0.9,0.1-1.3,0.2c-0.4,0.1-0.8,0.2-1.2,0.3c-0.4,0.1-0.8,0.2-1.2,0.3c-0.6,0.1-1.1,0.3-1.7,0.4
		l0.7,1.1c0.2-0.1,0.4-0.2,0.7-0.2C17.3,22.5,18.1,22.3,19,22z"/>
	<path d="M13.6,16.5c0.3-0.1,0.7-0.3,1.1-0.4c0.4-0.1,0.8-0.3,1.2-0.4c0.8-0.3,1.7-0.6,2.7-0.9c1-0.3,2-0.6,3.1-0.8
		c0.5-0.1,1.1-0.2,1.7-0.3c0.3-0.1,0.6-0.1,0.9-0.2L23.9,13c-0.4,0.1-0.8,0.2-1.2,0.3c-0.4,0.1-0.9,0.2-1.3,0.3
		c-0.9,0.2-1.7,0.5-2.5,0.7c-0.8,0.3-1.6,0.5-2.3,0.8c-0.2,0.1-0.4,0.1-0.5,0.2c-0.2,0.1-0.4,0.1-0.5,0.2c-0.2,0.1-0.3,0.1-0.5,0.2
		c-0.2,0.1-0.3,0.1-0.5,0.2c-0.3,0.1-0.6,0.2-0.9,0.4c-0.1,0.1-0.3,0.1-0.4,0.2c-0.1,0.1-0.3,0.1-0.4,0.2c-0.3,0.1-0.6,0.3-0.9,0.4
		l0.1,0.2c0,0,0,0,0,0C12.3,17,12.9,16.7,13.6,16.5z"/>
	<path d="M12.3,47.3c0-0.6,0.1-1.2,0.2-2c0.1-0.4,0.2-0.8,0.3-1.2c0.1-0.4,0.3-0.8,0.4-1.3c0.2-0.4,0.3-0.9,0.5-1.4
		c0.2-0.5,0.4-1,0.6-1.4c0.4-1,1-2,1.5-3c0.6-1,1.2-2.1,1.8-3.2c0.2-0.3,0.3-0.5,0.5-0.8c0.2-0.3,0.3-0.5,0.5-0.8
		c0-0.1,0.1-0.1,0.1-0.2c0,0,0-0.1,0-0.1c0,0,0,0,0,0c0,0,0,0,0,0c0,0,0-0.1,0-0.1c0-0.1,0-0.1,0-0.2c-0.1,0.1-0.2,0.2-0.3,0.3
		c-0.9,0.9-1.8,1.8-2.8,2.6c-0.1,0.1-0.2,0.2-0.4,0.3l-0.2,0.1c-0.1,0-0.1,0.1-0.2,0.1c-0.3,0.2-0.5,0.4-0.8,0.5
		c-0.3,0.2-0.5,0.3-0.8,0.5c-0.1,0-0.1,0.1-0.2,0.1c-0.1,0-0.1,0.1-0.2,0.1c-0.1,0.1-0.3,0.1-0.4,0.2c-0.1,0.1-0.3,0.1-0.4,0.2
		c-0.1,0.1-0.3,0.1-0.4,0.2c-0.3,0.1-0.5,0.3-0.8,0.4c-0.5,0.2-1,0.5-1.5,0.6c-0.1,0-0.3,0.1-0.4,0.1c-0.1,0-0.1,0-0.2,0.1l-0.1,0
		l-0.1,0c-0.2,0.1-0.5,0.2-0.7,0.2c-0.1,0-0.2,0.1-0.4,0.1c-0.1,0-0.2,0.1-0.4,0.1c-0.2,0.1-0.5,0.1-0.7,0.2C6.5,39,6.3,39,6.2,39
		l-3.9,5.6c0.1-0.1,0.2-0.1,0.3-0.2c0.2-0.1,0.4-0.2,0.6-0.3c0.2-0.1,0.4-0.2,0.6-0.3c0.2-0.1,0.4-0.2,0.6-0.3
		c0.4-0.2,0.8-0.5,1.2-0.7c0.8-0.5,1.7-1,2.5-1.6c0.8-0.6,1.6-1.2,2.4-1.8c0.2-0.2,0.4-0.3,0.6-0.5c0.2-0.2,0.4-0.3,0.6-0.5
		c0.1-0.1,0.2-0.2,0.3-0.3c0.1-0.1,0.2-0.2,0.3-0.3c0.1-0.1,0.2-0.2,0.3-0.2l0,0c0,0,0,0,0.1,0l0,0l0,0c0,0,0,0,0.1,0l0,0
		c0,0,0,0,0.1,0c0,0,0.1,0,0.1,0c0,0,0,0,0.1,0c0,0,0,0,0,0.1c0,0,0,0,0,0l0,0c0,0,0,0,0,0c0,0.1,0,0.1,0,0.1c0,0,0,0.1,0,0.1
		c0,0.1,0,0.1,0,0.2c0,0.1,0,0.2,0,0.3c0,0.1,0,0.1,0,0.1l0,0l0,0c0,0,0,0,0,0c0,0,0,0,0,0c0,0,0,0,0,0.1c0,0.1,0,0.1,0,0.1
		c0,0,0,0.1,0,0.1c0,0,0,0.1-0.1,0.1c0,0.1-0.1,0.1-0.1,0.2c-0.1,0.2-0.3,0.4-0.5,0.6c-0.2,0.2-0.3,0.4-0.5,0.6
		c-0.6,0.7-1.2,1.4-1.8,2.1c-0.3,0.3-0.5,0.7-0.8,1c-0.2,0.3-0.5,0.7-0.7,1c-0.4,0.6-0.8,1.2-1.1,1.8c-0.3,0.5-0.5,1-0.6,1.5h3.6
		h1.5C12.3,47.8,12.3,47.6,12.3,47.3z"/>
	<path d="M22.9,32.6c-0.2-0.7-0.4-1.5-0.5-2.2c-0.1-0.4-0.1-0.7-0.2-1.1c0-0.4-0.1-0.7-0.1-1.1c0-0.2,0-0.4-0.1-0.5
		c0-0.1,0-0.2-0.1-0.2c0,0,0-0.1,0-0.1c0,0,0,0,0,0c0,0,0,0,0,0c0,0,0,0,0,0l0,0c0,0,0,0,0,0c0,0,0,0,0,0c0,0,0,0,0,0l0,0
		c0,0,0,0,0,0l0,0l-0.1,0c0,0-0.1-0.1-0.1-0.1c0,0-0.1-0.1-0.1-0.1l-0.1-0.1c-0.1-0.1-0.2-0.3-0.3-0.4c-0.1-0.1-0.2-0.2-0.3-0.3
		c0,0,0,0,0,0c0,0,0,0,0,0c0,0,0,0-0.1,0l0,0l0,0l0,0c0,0,0,0,0,0c0,0,0,0-0.1,0c0,0-0.1,0-0.1,0c-0.3,0.1-0.6,0.2-0.9,0.4
		c-0.6,0.2-1.2,0.5-1.8,0.7c-0.6,0.2-1.1,0.4-1.7,0.7c-1,0.4-2,0.7-2.9,1l-1.6,2.3c0,0,0.1,0,0.1-0.1c0.3-0.2,0.7-0.3,1.1-0.5
		c0.4-0.2,0.7-0.3,1.1-0.5c0.4-0.2,0.8-0.4,1.2-0.6c0.8-0.4,1.6-0.8,2.4-1.2c0.2-0.1,0.4-0.2,0.6-0.3c0.2-0.1,0.4-0.2,0.6-0.3
		c0.2-0.1,0.4-0.2,0.6-0.3l0.3-0.2l0.3-0.2c0.1,0,0.1-0.1,0.1-0.1l0.1,0l0,0l0,0c0,0,0,0,0,0l0,0c0,0,0.1,0,0.1-0.1
		c0,0,0.1,0,0.1-0.1c0.1,0,0.2-0.1,0.3-0.1c0.1,0,0.2,0,0.3,0.1c0.1,0,0.1,0.1,0.2,0.2c0.1,0.1,0.2,0.2,0.2,0.3
		c0.1,0.1,0.1,0.2,0.2,0.3c0,0,0.1,0.1,0.1,0.1c0,0,0,0,0,0l0,0l0,0c0,0,0,0,0,0c0,0,0,0,0,0.1c0,0,0,0,0,0c0,0,0,0,0,0
		c0,0,0,0,0,0.1l0,0.1c0,0,0,0.1,0,0.1l0,0.1c0,0.1,0,0.1,0,0.2c0,0.1,0,0.2,0,0.4c0,0.5,0,0.9,0,1.4c0,0.5,0,0.9,0,1.3
		c0,0.9,0.1,1.7,0.1,2.5c0.1,0.8,0.2,1.6,0.3,2.2c0.1,0.3,0.1,0.6,0.2,0.9l1.4-2c0-0.1-0.1-0.1-0.1-0.2
		C23.4,34.1,23.1,33.4,22.9,32.6z"/>
	<path d="M12.9,38C12.9,38,12.9,38,12.9,38C12.9,38,12.9,38,12.9,38z"/>
	<path d="M20.3,37.9c-0.1-0.3-0.1-0.6-0.2-0.9c0-0.3-0.1-0.7-0.1-1c0-0.4,0-0.7,0-1.1c0-0.4,0-0.8,0-1.2c0-0.4,0-0.8,0.1-1.3
		c0-0.4,0.1-0.9,0.1-1.3c0-0.2,0-0.4,0-0.7c0-0.2,0-0.4,0-0.6c0,0,0-0.1,0-0.1c0,0,0,0,0,0c-0.1,0-0.2-0.1-0.3-0.2
		c-0.1-0.1-0.2-0.2-0.3-0.3c0,0-0.1-0.1-0.1-0.1c0,0,0,0,0,0c0,0,0,0,0,0c0,0-0.1,0-0.1,0.1c0,0,0,0-0.1,0c0,0,0,0-0.1,0.1l-0.1,0.1
		l-0.1,0.1L19,29.3l-0.1,0.1c-0.1,0.1-0.2,0.1-0.3,0.2c-0.4,0.3-0.8,0.5-1.2,0.8c-0.8,0.5-1.7,0.9-2.5,1.4c-0.2,0.1-0.4,0.2-0.6,0.3
		c-0.2,0.1-0.4,0.2-0.6,0.3c-0.2,0.1-0.4,0.2-0.6,0.3c-0.2,0.1-0.4,0.2-0.6,0.3c-0.8,0.4-1.6,0.7-2.4,1c-0.2,0.1-0.3,0.1-0.5,0.2
		l-3.2,4.6c0,0,0.1,0,0.1,0c0.2-0.1,0.5-0.1,0.7-0.2c0.1,0,0.2-0.1,0.4-0.1c0.1,0,0.2-0.1,0.4-0.1c0.2-0.1,0.5-0.2,0.7-0.3l0.1,0
		l0.1,0c0.1,0,0.1,0,0.2-0.1c0.1,0,0.2-0.1,0.4-0.2c0.5-0.2,1-0.4,1.5-0.7c0.1,0,0.1-0.1,0.2-0.1c0.1,0,0.1-0.1,0.2-0.1
		c0.1-0.1,0.3-0.1,0.4-0.2c0.1-0.1,0.3-0.1,0.4-0.2c0.1-0.1,0.2-0.1,0.4-0.2c0.1-0.1,0.3-0.1,0.4-0.2c0.1,0,0.1-0.1,0.2-0.1
		c0.1,0,0.1-0.1,0.2-0.1c0.2-0.2,0.5-0.3,0.7-0.5c0.2-0.2,0.5-0.4,0.7-0.5c0.1,0,0.1-0.1,0.2-0.1l0.2-0.1c0.1-0.1,0.2-0.2,0.4-0.3
		c0.9-0.8,1.9-1.6,2.7-2.5c0.1-0.1,0.2-0.2,0.4-0.3l0.1,0c0,0,0,0,0.1,0c0,0,0,0,0,0l0,0c0,0,0,0,0.1,0c0,0,0,0,0,0c0,0,0,0,0,0
		c0,0,0,0,0.1,0c0,0,0,0,0.1,0c0,0,0.1,0,0.1,0.1c0.1,0.1,0.1,0.1,0.1,0.1c0,0.1,0,0.1,0,0.2c0,0.1,0,0.2,0,0.2c0,0,0,0.1,0,0.1
		c0,0,0,0,0,0l0,0c0,0,0,0,0,0c0,0,0,0,0,0.1c0,0,0,0,0,0.1c0,0,0,0.1,0,0.1c0,0,0,0,0,0.1c0,0,0,0.1-0.1,0.1c0,0.1-0.1,0.1-0.1,0.2
		c-0.2,0.3-0.3,0.5-0.5,0.8c-0.2,0.3-0.3,0.5-0.5,0.8c-0.3,0.5-0.6,1.1-0.9,1.6c-0.3,0.5-0.6,1-0.9,1.5c-0.6,1-1.1,2-1.6,3
		c-0.5,1-0.9,1.9-1.2,2.8c-0.3,0.9-0.6,1.7-0.8,2.4c-0.2,0.7-0.3,1.4-0.3,1.9c0,0.2,0,0.5,0,0.7h2.5l6-8.7c0,0,0,0,0-0.1
		C20.6,38.9,20.4,38.4,20.3,37.9z"/>
	<path d="M34.9,14.9c-0.1,0-0.1-0.1-0.2-0.1c-0.1-0.1-0.2-0.1-0.4-0.2c-0.1-0.1-0.3-0.1-0.4-0.2l-0.1,0l0,0l0,0
		c-0.1,0-0.1-0.1-0.2-0.1c-0.3-0.1-0.5-0.2-0.8-0.3c-0.1,0-0.3-0.1-0.4-0.1c0,0,0,0,0,0v0.5c0.1,0,0.2,0.1,0.3,0.1l0.1,0l0.1,0
		c0.1,0,0.1,0,0.2,0.1c0.1,0,0.3,0.1,0.4,0.1c0.1,0,0.3,0.1,0.4,0.1c0.7,0.3,1.4,0.6,2,0.9h0.4v-0.1c-0.4-0.2-0.8-0.5-1.2-0.7
		C35,15,35,14.9,34.9,14.9z"/>
	<path d="M7.7,46.5c0.3-0.6,0.6-1.2,1-1.9c0.4-0.7,0.9-1.3,1.4-2.1c0.5-0.7,1.1-1.4,1.7-2.2c0.2-0.2,0.3-0.4,0.5-0.6
		c0.1-0.2,0.3-0.4,0.4-0.6c0,0,0.1-0.1,0.1-0.1c0,0,0,0,0-0.1c0,0,0,0,0-0.1c0,0,0,0,0,0l0,0c0-0.1,0-0.1,0-0.2c0-0.1,0-0.3,0-0.4
		c0-0.1,0-0.1,0-0.2c0,0,0,0,0,0l0,0c-0.1,0.1-0.2,0.1-0.3,0.2c-0.1,0.1-0.2,0.2-0.3,0.2c-0.1,0.1-0.2,0.2-0.3,0.3
		c-0.2,0.2-0.4,0.3-0.6,0.5c-0.2,0.2-0.4,0.3-0.6,0.5c-0.8,0.7-1.6,1.3-2.5,1.9c-0.2,0.1-0.4,0.3-0.6,0.4c-0.2,0.1-0.4,0.3-0.6,0.4
		c-0.1,0.1-0.2,0.1-0.3,0.2c-0.1,0.1-0.2,0.1-0.3,0.2c-0.2,0.1-0.4,0.3-0.6,0.4c-0.2,0.1-0.4,0.2-0.6,0.3c-0.1,0.1-0.2,0.1-0.3,0.2
		c-0.1,0.1-0.2,0.1-0.3,0.2C4.4,44,4.2,44.1,4,44.2c-0.2,0.1-0.4,0.2-0.6,0.3c-0.2,0.1-0.4,0.2-0.6,0.3C2.6,44.9,2.4,45,2.2,45
		c-0.1,0-0.2,0.1-0.2,0.1L0,48h7.1c0,0,0,0,0,0C7.2,47.6,7.4,47,7.7,46.5z"/>
	<path d="M13,38.9C13,38.9,13,38.9,13,38.9C13,38.9,13,38.9,13,38.9L13,38.9L13,38.9C13,38.9,13,38.9,13,38.9z"/>
	<path d="M39,43.8c-0.6,0.2-1.2,0.3-1.8,0.4c-0.6,0.1-1.3,0.2-2,0.1c-0.7,0-1.4-0.1-2.1-0.2c-0.7-0.2-1.4-0.4-2.1-0.7
		C30.4,43,29.7,42.5,29,42l4.1,6H48l-4.4-6.3c-0.5,0.3-1,0.6-1.7,0.9C41.1,43,40.1,43.4,39,43.8z"/>
	<path d="M36.3,41.7c-0.4,0.1-0.8,0.1-1.2,0.1c-0.1,0-0.2,0-0.3,0c-0.1,0-0.2,0-0.3,0l-0.1,0l0,0l0,0l-0.2,0c-0.1,0-0.2,0-0.3,0
		c-0.8,0-1.7-0.1-2.5-0.4c-0.4-0.1-0.8-0.3-1.2-0.4c-0.4-0.2-0.8-0.4-1.1-0.6c-0.7-0.5-1.4-1-2-1.7c-0.3-0.3-0.6-0.7-0.8-1
		c-0.2-0.3-0.5-0.7-0.7-1.1c-0.2-0.4-0.4-0.7-0.6-1.1c-0.2-0.4-0.3-0.8-0.5-1.2c-0.6-1.6-0.9-3.2-1.2-4.7c-0.1-0.8-0.2-1.6-0.3-2.3
		c0-0.4-0.1-0.8-0.1-1.1c0-0.1,0-0.2,0-0.3l0-0.1c0,0,0,0,0-0.1c0,0,0,0,0-0.1l0,0c0,0,0,0,0,0l0,0c-0.1-0.1-0.2-0.2-0.3-0.3
		c-0.1-0.1-0.3-0.2-0.4-0.2c-0.1,0-0.2-0.1-0.2-0.1c0,0-0.1,0-0.1,0l-0.1,0l-0.1,0l0,0l0,0l-0.1,0c0,0,0,0,0,0l0,0c0,0,0,0,0,0
		l-0.1,0c0,0-0.1,0-0.1,0l-0.1,0c-0.2,0.1-0.3,0.1-0.5,0.2c-0.6,0.3-1.2,0.5-1.8,0.8c-1.2,0.5-2.2,0.9-3.2,1.2
		c-0.7,0.2-1.3,0.5-1.9,0.6l-0.5,0.7c0.8-0.3,1.7-0.6,2.6-1c1.1-0.4,2.2-0.9,3.5-1.5c0.3-0.1,0.6-0.3,1-0.4c0,0,0.1,0,0.1,0
		c0,0,0,0,0.1,0c0,0,0,0,0,0l0,0l0,0c0,0,0,0,0,0l0,0l0,0c0,0,0,0,0.1,0c0,0,0.1,0,0.1,0c0,0,0,0,0.1,0c0,0,0.1,0.1,0.1,0.1
		c0,0,0.1,0.1,0.1,0.1c0.1,0.1,0.1,0.1,0.2,0.2c0.1,0.1,0.2,0.3,0.3,0.4l0.1,0.1c0,0,0.1,0.1,0.1,0.1c0,0,0.1,0.1,0.1,0.1l0,0l0,0
		l0,0c0,0,0,0,0,0l0,0c0,0,0,0,0,0c0,0,0,0,0,0c0,0,0,0,0,0c0,0.1,0.1,0.1,0.1,0.2c0,0.1,0.1,0.2,0.1,0.3c0,0.2,0.1,0.4,0.1,0.5
		c0.1,0.4,0.1,0.7,0.1,1.1c0,0.4,0.1,0.7,0.2,1.1c0.1,0.7,0.3,1.5,0.5,2.2c0.2,0.7,0.5,1.4,0.8,2.1c0.3,0.6,0.6,1.2,0.9,1.7l2.7,3.9
		c0,0,0.1,0.1,0.1,0.1c0.3,0.3,0.5,0.5,0.8,0.8c0.3,0.3,0.6,0.5,0.8,0.7c0.1,0.1,0.3,0.2,0.4,0.3c0.2,0.1,0.3,0.2,0.5,0.3
		c0.2,0.1,0.3,0.2,0.5,0.3c0.1,0,0.2,0.1,0.2,0.1l0.1,0.1l0.1,0.1c0.3,0.2,0.6,0.3,1,0.4c0.1,0,0.2,0.1,0.2,0.1
		c0.1,0,0.2,0.1,0.2,0.1c0.2,0.1,0.3,0.1,0.5,0.1c0.7,0.2,1.3,0.2,2,0.3c0.7,0,1.3,0,1.9-0.1c0.6-0.1,1.2-0.2,1.8-0.4
		c0.1,0,0.3-0.1,0.4-0.1c0.1,0,0.3-0.1,0.4-0.1c0.1,0,0.3-0.1,0.4-0.1c0.1,0,0.1,0,0.2-0.1c0.1,0,0.1,0,0.2-0.1
		c0.1,0,0.2-0.1,0.4-0.1c0.1,0,0.2-0.1,0.3-0.1c0.2-0.1,0.5-0.2,0.7-0.3c0.6-0.3,1.2-0.6,1.7-0.9l-1.5-2.1c-0.5,0.3-1,0.6-1.5,0.8
		C39.3,40.9,37.8,41.5,36.3,41.7z"/>
	<path d="M21.8,35c-0.1-0.4-0.1-0.8-0.2-1.2c-0.1-0.8-0.2-1.7-0.2-2.5c0-0.9,0-1.8-0.1-2.7c0-0.1,0-0.2,0-0.3c0-0.1,0-0.2,0-0.3l0,0
		l0,0c0,0,0,0,0,0c0,0-0.1-0.1-0.1-0.1c-0.1-0.1-0.2-0.2-0.2-0.3c-0.1-0.1-0.1-0.2-0.2-0.3c0,0-0.1-0.1-0.1-0.1c0,0,0,0-0.1,0
		c0,0,0,0-0.1,0c0,0,0,0-0.1,0c0,0,0,0-0.1,0l0,0l0,0l-0.1,0.1c-0.1,0-0.1,0.1-0.2,0.1l-0.3,0.2l-0.3,0.2c-0.2,0.1-0.4,0.2-0.6,0.3
		c-0.2,0.1-0.4,0.2-0.6,0.3c-0.2,0.1-0.4,0.2-0.6,0.3c-0.2,0.1-0.4,0.2-0.6,0.3c-0.2,0.1-0.4,0.2-0.6,0.3c-0.1,0.1-0.2,0.1-0.3,0.2
		c-0.1,0-0.2,0.1-0.3,0.1c-0.2,0.1-0.4,0.2-0.6,0.3c-0.4,0.2-0.8,0.4-1.2,0.5c-0.4,0.2-0.8,0.3-1.1,0.5c-0.4,0.2-0.7,0.3-1.1,0.4
		c-0.2,0.1-0.4,0.1-0.5,0.2l-1.4,2c0,0,0,0,0,0c0.8-0.3,1.5-0.7,2.3-1c0.8-0.4,1.6-0.8,2.4-1.2c0.8-0.4,1.7-0.9,2.5-1.4
		c0.4-0.2,0.8-0.5,1.2-0.8c0.1-0.1,0.2-0.1,0.3-0.2l0.1-0.1l0.1-0.1l0.1-0.1l0.1-0.1c0,0,0,0,0.1-0.1c0,0,0.1,0,0.1-0.1
		c0.1,0,0.1-0.1,0.2-0.1c0,0,0,0,0.1,0c0,0,0.1,0,0.1,0c0.1,0,0.1,0,0.2,0c0,0,0,0,0.1,0c0,0,0,0,0.1,0c0,0,0,0,0,0c0,0,0,0,0,0
		c0,0.1,0.1,0.1,0.1,0.2c0.1,0.1,0.1,0.2,0.2,0.2c0.1,0.1,0.1,0.1,0.2,0.1c0,0,0,0,0,0l0,0c0,0,0,0,0,0c0,0,0,0,0,0c0,0,0,0,0,0
		c0,0,0,0,0,0c0,0.1,0,0.1,0.1,0.1c0,0.1,0,0.1,0,0.2c0,0.3,0,0.5,0,0.7c0,0.2,0,0.5-0.1,0.7c-0.1,0.9-0.2,1.7-0.2,2.5
		c0,0.4-0.1,0.8-0.1,1.2c0,0.4,0,0.7,0,1.1c0,0.7,0.1,1.4,0.2,1.9c0.1,0.6,0.3,1,0.4,1.4c0,0,0,0,0,0l1.4-2.1
		c-0.1-0.3-0.2-0.7-0.3-1.1C21.9,35.8,21.9,35.4,21.8,35z"/>
	<path d="M18.8,31.5L18.8,31.5C18.8,31.5,18.8,31.5,18.8,31.5z"/>
</g>
</svg>
