<?xml version="1.0" standalone="no"?>
<!DOCTYPE svg PUBLIC "-//W3C//DTD SVG 1.1//EN" "http://www.w3.org/Graphics/SVG/1.1/DTD/svg11.dtd" >
<svg xmlns="http://www.w3.org/2000/svg">
<metadata>
Created by FontForge 20120731 at Sat May 20 10:19:02 2017
 By admin
</metadata>
<defs>
<font id="yxiconfont" horiz-adv-x="1024" >
  <font-face 
    font-family="yxiconfont"
    font-weight="500"
    font-stretch="normal"
    units-per-em="1024"
    panose-1="2 0 6 3 0 0 0 0 0 0"
    ascent="896"
    descent="-128"
    x-height="792"
    bbox="-2 -128 1156 896"
    underline-thickness="0"
    underline-position="0"
    unicode-range="U+0078-E671"
  />
<missing-glyph 
 />
    <glyph glyph-name=".notdef" 
 />
    <glyph glyph-name=".notdef" 
 />
    <glyph glyph-name=".null" horiz-adv-x="0" 
 />
    <glyph glyph-name="nonmarkingreturn" horiz-adv-x="341" 
 />
    <glyph glyph-name="x" unicode="x" horiz-adv-x="1001" 
d="M281 543q-27 -1 -53 -1h-83q-18 0 -36.5 -6t-32.5 -18.5t-23 -32t-9 -45.5v-76h912v41q0 16 -0.5 30t-0.5 18q0 13 -5 29t-17 29.5t-31.5 22.5t-49.5 9h-133v-97h-438v97zM955 310v-52q0 -23 0.5 -52t0.5 -58t-10.5 -47.5t-26 -30t-33 -16t-31.5 -4.5q-14 -1 -29.5 -0.5
t-29.5 0.5h-32l-45 128h-439l-44 -128h-29h-34q-20 0 -45 1q-25 0 -41 9.5t-25.5 23t-13.5 29.5t-4 30v167h911zM163 247q-12 0 -21 -8.5t-9 -21.5t9 -21.5t21 -8.5q13 0 22 8.5t9 21.5t-9 21.5t-22 8.5zM316 123q-8 -26 -14 -48q-5 -19 -10.5 -37t-7.5 -25t-3 -15t1 -14.5
t9.5 -10.5t21.5 -4h37h67h81h80h64h36q23 0 34 12t2 38q-5 13 -9.5 30.5t-9.5 34.5q-5 19 -11 39h-368zM336 498v228q0 11 2.5 23t10 21.5t20.5 15.5t34 6h188q31 0 51.5 -14.5t20.5 -52.5v-227h-327z" />
    <glyph glyph-name="ic_fullscreen_black_" unicode="&#xe61e;" 
d="M299 299h-86v-214h214v86h-128v128zM213 469h86v128h128v86h-214v-214zM725 171h-128v-86h214v214h-86v-128zM597 683v-86h128v-128h86v214h-214z" />
    <glyph glyph-name="ic_play_px" unicode="&#xe628;" 
d="M341 683v-598l470 299z" />
    <glyph glyph-name="ic_warning_black_p" unicode="&#xe63b;" 
d="M43 0h938l-469 811zM555 128h-86v85h86v-85zM555 299h-86v170h86v-170z" />
    <glyph glyph-name="logo" unicode="&#xe642;" 
d="M583 603h50q7 0 9 -3q1 0 4 -1t4 -1h9q1 0 4 -1t4 -1h4q3 0 5 -2h2v11q-1 0 -4.5 1t-4.5 1q-35 6 -71 6t-74 -6q-2 0 -6.5 -1t-6.5 -1l6 -9q26 7 51 7h15zM602 326v-6q4 -5 6 -5h9q-7 2 -15 11zM587 45l-57 82q1 -1 2 -3t2 -3q29 -50 53 -76zM602 619q39 0 74 -6
q4 0 6 -2v32h-15q-15 0 -53 -5q-8 0 -12 -2q-9 0 -15 -2q-4 -1 -13.5 -2t-13.5 -2q-19 -2 -58 -11h-2l7 -8q3 0 9.5 1t9.5 1q41 6 76 6zM536 404l-2 2l-2 2q-4 5 -4 7q-4 4 -9 6v-17l3 -2l2 -4q0 -2 2 -2h17q-3 2 -4.5 4.5t-2.5 3.5zM855 795q0 -1 1 -3.5t1 -3.5q1 -1 2 -3
t2 -3q4 -6 13 -6q11 0 17 2q13 4 17 6q13 4 19 9q3 1 9.5 4t9.5 4q13 4 17 8l12 7h-44v80h-82v-82q2 -2 4 -9q-2 -3 2 -10zM811 782q8 -13 12 -17q11 -10 17.5 -12.5t18.5 -2.5q7 0 19.5 4.5t16.5 6.5q5 2 16 7.5t16 7.5q9 5 26 14t25 13q2 1 8 4.5t8 6.5h-6q-4 -5 -8 -5
q-2 0 -5 -2t-6 -3.5t-6 -2.5t-8.5 -4t-8.5 -4.5t-9.5 -4.5t-9.5 -4q-13 -4 -19 -8q-2 -2 -9 -2q-2 0 -5 -1.5t-5 -1.5q-10 -3 -19 0q-4 0 -9 5l-6 6l-6 13q-2 4 -2 10q0 4 -2 7v2h-51q1 -2 3 -5.5t3 -5.5q2 -3 4.5 -7.5t4 -7.5t2.5 -6zM929 774q-11 -5 -32 -17
q-3 -1 -8 -3.5t-9 -3.5q-12 -4 -19 -4q-14 0 -21 2q-8 4 -10 7q-1 0 -3 1.5t-3.5 3t-2.5 3.5l-12 19q-9 13 -11 21q-4 9 -6 15h-23v-82h82v-83h82v76h80v85h-14q-4 -2 -10 -5.5t-9 -5.5q-6 -3 -23 -13t-28 -16zM87 833q10 0 31 -9q11 -4 32 -17q1 0 2 -1t2 -1t2 -1t2 -1
q5 -4 9 -6q1 0 2 -1t2 -1t2 -1t2 -1q-1 -2 2 -5l2 -2l3 -2q34 -14 38 -15q22 -6 44 -6q32 0 46 4q15 2 49 11q10 2 32 10l-76 108h-315l44 -63q2 0 8 1t9 1q17 0 26 -2zM437 343h-2h2zM716 643h-32v-32h2q1 0 4.5 -1t4.5 -1q12 -4 17 -6q1 0 2 -1.5t2 -1.5h4q1 -1 4 -2t4 -2
t4.5 -2t4.5 -2q1 0 2 -1t2 -1t2 -1t2 -1q1 -1 2 -1.5l3 -1.5t4 -1l8 -5q1 -1 3 -2l4 -2v70h-13q-25 0 -40 -2zM598 330l-24 23q-3 5 -10.5 13t-10.5 13q-2 2 -5 6t-5 6q-1 1 -2.5 3.5t-2.5 3.5h-16q0 -1 1 -2t1 -2q2 -3 5 -7t5 -6q10 -13 23 -23q13 -13 43 -38v6q-2 2 -2 4z
M749.5 250q-4.5 0 -6.5 2h-2h-2q-2 0 -6.5 1t-6.5 1q-2 1 -6 2t-6 2t-6.5 2.5t-6.5 2.5q-32 12 -53 27q-1 1 -3 2t-3 2t-3 2t-3 2l-5 3l-2 2q-1 1 -3 2t-3 2q-4 4 -6 4h-9q2 -2 6.5 -5t6.5 -5q2 -1 6 -4.5t6 -4.5q5 -3 13.5 -8.5t12.5 -8.5q22 -14 53 -25q8 -4 25 -9l25 -6
q4 0 7 -2l-9 13h-6q0 4 -4.5 4zM450 307zM636 309l2 -2q1 -1 3 -2t3 -2t3 -2t3 -3q17 -10 51 -27q34 -13 49 -15q4 0 6 -2l-74 106v-47h-55q1 0 2 -1t2 -1zM562 383l19 -25q3 -4 9 -11t10 -11v60h-49q9 -9 11 -13zM422 408l7.5 2.5l7.5 2.5q4 2 15 2h12q3 0 5 -2t7 -4t7 -3
l13 -6q1 0 2 -1t2 -1h5q2 0 2 -2q2 0 2 -2l2 -3q5 -5 8 -14q1 -3 3.5 -8l3.5 -7q6 -17 15 -28q3 -4 8 -12.5t8 -12.5q3 -2 6 -6.5t5 -6.5l2 -2l2 -2l7 -6q6 -9 23 -21q40 -30 50 -36l13 -7l13 -6q1 0 3 -1t3 -1t3 -1t3 -1t3.5 -1t3.5 -1t3 -1t3 -1t3 -1t3 -1t3.5 -1.5
t3.5 -1.5t3 -1t3 -1t3 -1t3 -1h5q4 0 6 -2q2 0 6.5 -1t6.5 -1q8 0 12 -2h38l-29 42q-9 0 -11 2q-23 3 -53 13q-23 8 -54 25q-15 8 -28 17q-2 1 -6 4.5t-7 4.5q-4 2 -12 10q-26 19 -51 44q-3 3 -7.5 8t-8 9t-7.5 7q-2 2 -5.5 6t-5.5 6q0 1 -1 2.5t-1 2.5q0 2 -2 2q0 2 -2 2
l-2 4l-2 2q-1 2 -2.5 3.5t-4 3.5t-4.5 4q-8 4 -13 8q-8 4 -14 9q-1 0 -2 1t-3 1h-2q-1 0 -3 1t-3 1h-15q-10 0 -15 -2q-10 -2 -27 -6.5t-27 -6.5q-17 -4 -26 -8q-2 -1 -6 -2.5t-6 -2.5l10 -16q6 2 23 6q21 0 55 8zM397 349q6 3 19 8.5t19 8.5q2 1 5 2t5 2h15q1 0 3.5 -1
t3.5 -1q8 -4 10 -6h4l2 -2l3 -2l2 -3l2 -2v-12q0 -5 1 -12t1 -12l3 -24l3 -24q3 -21 11 -49l6 -25q4 -17 9 -25q3 -12 10 -24q2 -4 6.5 -11.5t6.5 -11.5q6 -12 15 -21q8 -13 17 -21q10 -13 40 -34q6 -4 23 -12q4 -3 23 -9l25 -6q3 0 7 -1t6 -1h36q4 0 12.5 1t12.5 1
q44 6 91 27q3 2 9.5 5.5t9.5 5.5q9 4 11 6l-45 66q-1 -1 -4 -2.5t-4 -2.5t-3 -2t-3 -2q-1 0 -4 -1t-5 -1q-2 -2 -8 -2q-1 0 -3.5 -1t-5.5 -1q-1 0 -4 -1t-4 -1t-4.5 -1t-4.5 -1h-17q-6 0 -8 -3h-38h-23q-44 12 -72 36q-30 24 -55 64q-15 23 -40 74q-6 12 -15 38l-13 38
q0 1 -1 2t-1 2v2v2l-2 2l-4 4q-8 9 -15 11l-2 2l-2 2q-1 0 -2 1t-2 1h-2h-5h-6h-2q-1 0 -4 -1t-4 -1q-6 -2 -17.5 -5t-16.5 -5.5t-16 -5.5t-16 -5q-13 -4 -55 -15l-29 -44q10 4 36 13q15 9 63 29zM353 480q16 6 50 15q4 1 13.5 3t14.5 3t14.5 2t14.5 2q21 0 30 -2
q1 0 6.5 -2t8.5 -4q4 -2 12 -11q0 -2 2 -2l3 -2l2 -2h25l-8 9q-3 1 -6 4t-5 4l-4 4l-4 4q-12 8 -24 11q-17 4 -25 4q-17 0 -25 -2q-5 -1 -13.5 -2t-12.5 -2q-2 0 -6 -1t-6 -1q-3 -1 -7 -2t-6 -2q-9 -3 -25 -8.5t-22 -6.5q-13 -4 -21 -9l-19 -6q-3 -1 -8 -3t-9 -3l9 -13
q1 0 3 1t3 1q8 5 45 19zM372 548q33 15 61 23q3 1 8.5 3t8.5 3q12 4 17 4q1 0 4 1.5t4 1.5t4 1t4.5 1t4.5 1t4 1t4 1t4 1q4 1 11 2t11 2l-7 9q-19 -3 -57 -11q-12 -2 -34 -7.5t-31 -7.5q-6 -1 -16.5 -4.5t-13.5 -3.5q-6 -1 -15 -4.5t-12 -4.5q-10 -4 -49 -14q-24 -8 -36 -13
l21 -32q6 3 21 11t24 12q17 7 55 24zM348 501q9 4 25 9.5t22 7.5q2 1 6 2t6.5 2t6.5 2t6 3q17 4 28 4q8 2 27 2q11 0 27.5 -4.5t25.5 -12.5q1 -1 3 -2t3 -2l4 -4l11 -11l15 -15h120v-82h82v82h-82v83h57q-15 7 -27 10q-1 0 -4.5 1t-4.5 1t-4 1t-4 1q-2 0 -4 2h-5q-2 0 -4 3
v-19h-82v-83l-74 106q-17 -4 -26 -4q-46 -13 -67 -19q-28 -9 -61 -24q-7 -3 -26.5 -10.5t-28.5 -12.5q-9 -4 -24 -11t-21 -10l13 -19q3 1 8.5 3t8.5 3q7 3 22 8.5t22 8.5zM405 457q17 4 28 4q10 2 31 2q7 0 9 -2h4q1 0 2 -1t2 -1q2 -1 6.5 -4t6.5 -4q8 -5 25 -17v38l-2 2
l-2 4v4q-6 9 -23 13q-9 2 -28 2q-21 0 -54 -8q-39 -10 -51 -15q-9 -3 -25 -8t-22 -7q-1 0 -3 -1t-3 -1l15 -21q10 2 36 10q23 8 48 11zM302 567q23 11 44 17q27 11 49 16q2 1 6 2.5t6.5 2.5t6.5 2t6 2q1 0 3 1t3.5 1t3.5 1t3 1q2 1 7 2t8 2q4 1 13.5 3.5t13.5 3.5q13 4 23 4
l-10 15l-10.5 -3.5l-10.5 -3.5q-5 -1 -14.5 -4t-13.5 -4q-8 -3 -26 -9.5t-27 -9.5q-33 -13 -48 -19q-9 -4 -11 -4q-8 -5 -10 -5q-9 -4 -11 -4q-8 -4 -10 -4q-4 -1 -10 -4t-9 -4q-4 -7 -7 -7q-1 -1 -4 -2t-4 -2q-3 -2 -9.5 -5t-9.5 -6l2 -4q6 2 19 11q7 2 20 8.5t18 8.5z
M106 761h8q21 0 32 -2q25 -5 33 -9q2 0 5 -1t4 -1q2 -2 6 -2q2 0 4 -2q3 0 5 -2q1 0 4 -1t4 -1q25 -4 36 -4h19q3 0 9.5 1t9.5 1q21 3 36 8q5 2 15.5 5.5l16.5 5.5l3 1t5 1q1 0 3 1t3 1q2 3 13 8q13 5 17 7l-2 4q-5 -2 -17 -5.5t-17 -5.5q-60 -15 -97 -12q-24 0 -47 6
q-20 6 -40 19h-2q-2 0 -2 2l-4 4q-2 2 -4 2l-2 3q-5 2 -9 6t-8 6q-15 11 -30 17q-13 5 -29 9q-9 2 -26 2q-12 0 -17 -2l51 -72h4q1 0 3.5 1t3.5 1zM407 383q5 2 17 6q4 1 9 3.5t8 3.5q1 0 4.5 1t4.5 1h21q1 0 2 -1t2 -1l2 -2l2 -3q7 -4 15 -12l4 -5l4 -4q1 -2 3 -2
q0 -2 2 -2q0 -1 1 -2t1 -2l6 -19l7 -19q2 -7 7 -19.5t7 -18.5q15 -35 38 -72q25 -39 53 -61q14 -11 34 -21q15 -10 36 -13h17q12 0 19 -2h33q18 1 64 17l8 4l-31 46h-9q-19 -3 -44 0q-34 5 -53 11q-1 0 -3 1t-3 1t-3.5 1t-3.5 1t-3 1t-3 1t-3 1t-3 1l-13 7l-13 6
q-8 4 -25 17q-1 1 -3 2t-3 2l-9 4l-2 3q-2 2 -6 5t-7 5q-13 10 -23 23l-6 7l-2 2l-2 2q-2 2 -5.5 6t-5.5 7q-13 16 -19 27q-9 15 -15 30q-1 2 -3 7t-3 7q-4 9 -9 13l-2 2l-2 2h-4q-1 0 -2 1t-2 1q-9 5 -15 7l-13 6q-2 0 -4 2h-4h-4q-2 0 -7 -1t-8 -1q-2 0 -6.5 -1t-8.5 -1
l-25 -6l-26 -7q-10 -2 -27 -6l-19 -28q5 2 22 7.5t27 7.5q8 4 19.5 7.5t15.5 5.5zM293 575l43 21q2 1 20 9.5t28 11.5q9 5 13 5q8 4 13 4q1 0 3 1t3 1t3 1t3 1q9 4 13 4q4 1 13.5 4.5t13.5 4.5q13 4 17 6l-82 118q-9 -3 -17 -8q-4 -2 -13.5 -6.5t-13.5 -6.5q-22 -8 -32 -10
q-11 -5 -36 -9q-6 -2 -19 -2h-19q-13 0 -19 2q-6 0 -19 4l-19 7q-1 0 -4 1t-4 1t-4.5 1t-4.5 1q-10 6 -32 10q-4 3 -14 3h-26h-2l144 -209q3 2 8.5 5t8.5 5q21 13 33 19zM401 432q9 2 30 6q2 0 7 1t7 1h17q7 0 9 -2h4q1 0 2 -1t2 -1q9 -4 13 -9q13 -6 15 -8q6 -3 12 -13v17
q-2 2 -4 2q-4 3 -12.5 8.5t-12.5 8.5q-2 1 -6.5 4t-6.5 5q-8 4 -13 4h-14q-11 0 -15 -2q-11 0 -28 -5l-25 -6l-25 -6q-7 -1 -18.5 -4.5t-17.5 -4.5l15 -23q8 4 14 4q13 11 51 24zM287 548q2 0 10 3.5t13 4.5t13 4t13 5q25 9 57 19q42 12 65 16q11 3 36 7q3 1 9.5 2t9.5 2
l-8 11l-26 -7q-4 -1 -13.5 -3t-13.5 -3q-11 -2 -28.5 -7.5t-24.5 -7.5t-23.5 -7.5t-25.5 -9.5q-1 -1 -5 -2t-5 -2q-2 -1 -5.5 -2t-5.5 -2t-5 -2t-5 -2.5t-5.5 -2.5t-5.5 -2q-12 -4 -19 -8q-1 -1 -4 -2t-4 -2t-4.5 -2.5t-4.5 -2.5q-3 -1 -9 -4t-10 -4l2 -4q7 9 32 17z
M260 -103q0 9 4 43l6 25q1 3 4.5 12t4.5 15q2 5 5.5 15.5t4.5 14.5q9 21 13 29q4 10 9 20.5t12 23.5t11 20q12 21 38 67q2 4 5 9t5 8t5.5 8.5t5.5 8.5q0 1 1 2t1 2v2v3v4l-7 -7q-38 -38 -59 -54q-4 -5 -8 -7l-4 -2q-1 0 -2 -1t-3 -1q-14 -10 -16 -11q-4 -2 -9 -5t-8 -5
q-1 0 -2 -1t-2.5 -1t-2.5 -1t-2 -1q-1 -1 -4 -2t-4 -2.5t-4.5 -2.5t-4.5 -2t-4 -2t-4 -2q-3 -1 -8.5 -4t-8.5 -4q-3 -2 -9.5 -5t-12 -5t-10.5 -3q-1 0 -4 -1t-4 -1q-2 0 -4 -2h-5q-8 -5 -14 -5q-1 0 -3.5 -1t-5.5 -1q-1 0 -3.5 -1t-4.5 -1q-2 -1 -7.5 -2t-7.5 -2q4 -8 -2 -8
l-82 -119q1 1 3 2.5t3 2.5l13 6l12 6l13 7q4 2 12.5 7t12.5 7q47 29 53 34l51 38q2 2 6 5.5t6 5.5t6.5 5t6.5 5l6 7l7 6q4 4 6 4h11v-25q0 -2 -3 -2q0 -1 -1 -2t-1 -3q-2 -4 -10 -12q-2 -2 -5.5 -6.5t-5.5 -6.5l-38 -44q-3 -3 -8 -10.5t-9 -10.5l-7 -10.5l-7 -10.5
q-17 -26 -24 -38q-9 -16 -12 -32h107q5 -2 6 0.5t1 7.5zM483 208q-7 27 -10 46q-1 4 -2 11.5t-2 11.5q0 5 -1 12t-1 12q0 8 -3 10q0 4 -2 4v2h-2l-2 3l-2 2l-2 2q-1 1 -3 4t-3 4l-7 7h-2h-2h-2q-13 -5 -19 -9q-6 -2 -19 -7.5t-19 -7.5q-19 -6 -36 -14q-11 -5 -61 -22
l-34 -48q2 0 2 2q4 2 12 5.5t11 5.5q5 2 12 5t12 5l25 13l51 25l12 6l13 7l13 6l6 4l6 5l2 2h2q3 0 3 2q2 0 2 2q1 0 3 1t3 1q4 0 6 -2l5 -4q4 -5 4 -7q1 -1 2 -3t2 -3l2 -2v-80q0 -10 1 -27.5t1 -25.5q4 -34 7 -47q1 -3 2 -9t2 -10l29 43q0 1 -1 2t-1 2q-2 12 -7.5 29.5
t-7.5 23.5zM272 94zM429 96q-1 3 -2.5 9.5t-2.5 9.5q0 3 -1 10.5t-1 10.5v23v25q0 17 2 28q0 4 1 13.5t1 13.5v15v13v2q-2 0 -6 4l-6 6l-2 3q-2 0 -2 -3h-3l-2 -2l-2 -2l-2 -2v4l-2 -2q-1 -1 -3 -2t-3 -2q-5 -3 -13 -8.5t-13 -8.5q-8 -5 -26 -14.5t-26 -14.5l-13 -7l-13 -6
l-12 -6l-13 -7q-17 -8 -51 -21q-2 -1 -5 -2t-5 -2l-68 -97h2q2 1 7.5 2t7.5 2q1 0 3.5 1t4.5 1q1 0 4 1t5 1q2 1 7.5 3.5t7.5 3.5h4q2 0 4 2l9 4q21 8 31 15q1 0 2 1t2.5 1t2.5 1t2 1q1 1 4 2t4 2t4.5 2t4.5 2t2 1.5t2.5 1.5t3.5 2q1 1 4 2t4 2q2 0 3 1t2 1t2 1t2 1
q2 2 7.5 5t7.5 6q6 6 14 10q2 0 3 1t2 1l4 2q4 5 8 7q48 42 57 52q5 5 9 7h10q2 0 2 -2l3 -2v-19q0 -3 -3 -3q0 -1 -1 -2t-1 -2q-2 -3 -5 -8t-5 -8.5t-5.5 -8.5t-5.5 -9q-3 -5 -9.5 -16.5t-9.5 -16.5l-19 -32q-12 -21 -34 -63q-16 -34 -25 -59q-2 -7 -6 -18t-6.5 -19
t-4.5 -14q-6 -22 -6 -40v-15h53l126 184v2q-12 24 -14 38zM737 581q-1 0 -2 1.5t-2 1.5l-9 4q-1 1 -4 2t-4 2h-2q-1 0 -2.5 1t-2.5 1q-3 1 -8 3t-8 3q-2 0 -5 1.5t-4 1.5v-11q1 0 3 -1t3 -1h5q2 0 4 -2q1 0 4 -1t4 -1t4.5 -1t4.5 -1q29 -13 42 -19h8v2q-4 2 -12.5 7t-12.5 7
h-4zM163 -86q12 26 21 40q4 8 14.5 22.5t14.5 22.5q6 8 18.5 23.5t17.5 22.5q2 2 5.5 6.5t5.5 6.5q1 2 4 6t4 6l2 3v2v2v4v8v5q-1 -1 -3 -2t-3 -3q-4 -4 -6 -4l-7 -6q-2 -2 -6 -5.5t-6.5 -5.5t-6.5 -5t-6 -5q-24 -21 -53 -40q-2 -1 -6 -4.5t-6.5 -4.5t-6.5 -4t-6 -4
q-1 -1 -3 -2t-3.5 -2t-3.5 -2.5t-3 -2.5q-2 -1 -6 -4t-7 -4l-12 -6q-1 -1 -3 -2.5t-3.5 -2.5t-3.5 -2t-3 -2l-13 -6l-12 -7l-13 -6q-8 -4 -13 -4l-4 -2l-42 -61h150q4 18 13 31zM274 75zM823 -29q-12 -4 -38 -8q-26 -5 -42 -2q-15 0 -44 4q-30 8 -44 15q-13 8 -43 29
l87 -126h314l-92 133q-22 -13 -36 -19q-23 -12 -62 -26zM766 16q-8 -3 -25 -3h-25q-31 0 -53 9q-4 1 -12.5 4t-12.5 4q-17 9 -24 13q-29 21 -42 36q-8 8 -17 21q-12 19 -14.5 23t-6.5 11.5t-6 12t-5.5 13t-5.5 12.5q-11 31 -25 99q-4 34 -6 49q0 4 -1.5 12t-1.5 11v8v2v2
l-6 7q-4 4 -8 4l-5 2h-10h-4q-2 -1 -5.5 -2t-5.5 -2q-6 -3 -19 -8.5t-19 -8.5q-43 -18 -67 -25q-6 -2 -19.5 -7t-21.5 -6l-10 -15q47 18 55 21q25 9 74 32q2 1 9 4t12 4h10l2 -2l3 -2l4 -4q1 -1 3 -4t3 -4l2 -3l2 -2l2 -2q0 -1 1.5 -2t1.5 -2t1 -3t1 -3q0 -3 1 -6.5t1 -4.5
q2 -8 2 -23q0 -6 4 -23q3 -19 11 -47q4 -15 17 -44q12 -25 19 -36l57 -82l2 -2l17 -17q3 -4 9 -8.5t8 -6.5q1 -1 4 -3t4 -3q2 -1 5 -3.5t5.5 -3.5t5.5 -3t5 -3l4 -2l2 -2l3 -2q7 -5 21 -9l4 -2l4 -2q4 -2 11 -2q2 -1 42 -7q27 0 40 3q25 4 38 8q1 0 4 1t4 1t4.5 1t4.5 1t4 1
t4 1q2 0 5 2q2 0 4 3q1 0 3.5 1t4.5 1q1 0 3 1t4 1q2 1 7 3t7 3q26 13 36 19l-31 44q-22 -12 -32 -16q-31 -31 -85 -38zM460 157q-1 4 -2 12.5t-2 12.5q-4 34 -4 53q0 38 -2 57v6v7l-2 2q-5 4 -5 6q-1 1 -2 3.5t-2 3.5l-2 2h-2h-2h-2h-2l-3 -2q-1 0 -2 -1.5t-2 -1.5l-6 -4
l-6 -4l-13 -6l-13 -7l-12 -6l-13 -6l-13 -7q-1 -1 -3 -2t-3 -2q-1 0 -3 -1t-3 -1l-13 -6q-17 -9 -25 -11q-4 -1 -12 -4.5t-12 -5.5q-10 -6 -23 -9q-2 -1 -5.5 -2t-4.5 -2l-30 -42q8 3 24 10.5t25 10.5l50 25q28 14 53 30q8 4 25 17q1 1 3.5 2t3.5 2l2 2l2 2l2 2l2 2l2 2
q2 0 2 2q1 0 2.5 1.5t2.5 1.5h12q0 -1 1 -2.5t1 -2.5q1 0 2 -2t3 -2q2 -2 4 -2q0 -2 2 -2v-19q0 -11 -2 -15q-4 -38 -4 -53q0 -4 -1.5 -12.5t-1.5 -12.5v-23q0 -19 5 -40q1 -8 4.5 -18t3.5 -12l30 44q-2 7 -7 24q0 -6 0 -1q-1 4 -2 7zM397 231z" />
    <glyph glyph-name="ic_mood_bad_px1" unicode="&#xe646;" 
d="M512 811q-116 0 -214.5 -57.5t-155.5 -155.5t-57 -214t57 -214t155.5 -155.5t214.5 -57.5t214 57.5t155.5 155.5t57.5 214t-57.5 214t-155.5 155.5t-214 57.5zM512 43q-93 0 -171.5 45.5t-124 124t-45.5 171.5t45.5 171.5t124 124t171.5 45.5t171.5 -45.5t124 -124
t45.5 -171.5t-45.5 -171.5t-124 -124t-171.5 -45.5zM661.5 427q26.5 0 45 18.5t18.5 45t-18.5 45.5t-45 19t-45.5 -19t-19 -45.5t19 -45t45.5 -18.5zM362.5 427q26.5 0 45.5 18.5t19 45t-19 45.5t-45.5 19t-45 -19t-18.5 -45.5t18.5 -45t45 -18.5zM512 299
q-73 0 -132.5 -41.5t-85.5 -108.5h436q-26 67 -85.5 108.5t-132.5 41.5z" />
    <glyph glyph-name="ic_mood_happy_px1" unicode="&#xe647;" 
d="M512 811q-116 0 -214.5 -57.5t-155.5 -155.5t-57 -214t57 -214t155.5 -155.5t214.5 -57.5t214 57.5t155.5 155.5t57.5 214t-57.5 214t-155.5 155.5t-214 57.5zM512 43q-93 0 -171.5 45.5t-124 124t-45.5 171.5t45.5 171.5t124 124t171.5 45.5t171.5 -45.5t124 -124
t45.5 -171.5t-45.5 -171.5t-124 -124t-171.5 -45.5zM661.5 427q26.5 0 45 18.5t18.5 45t-18.5 45.5t-45 19t-45.5 -19t-19 -45.5t19 -45t45.5 -18.5zM362.5 427q26.5 0 45.5 18.5t19 45t-19 45.5t-45.5 19t-45 -19t-18.5 -45.5t18.5 -45t45 -18.5zM512 149q73 0 132.5 41.5
t85.5 108.5h-436q26 -67 85.5 -108.5t132.5 -41.5z" />
    <glyph glyph-name="ic_mood_ordinary_p1" unicode="&#xe648;" 
d="M661 491zM597 490.5q0 -26.5 19 -45t45.5 -18.5t45 18.5t18.5 45t-18.5 45.5t-45 19t-45.5 -19t-19 -45.5zM363 491zM299 490.5q0 -26.5 18.5 -45t45 -18.5t45.5 18.5t19 45t-19 45.5t-45.5 19t-45 -19t-18.5 -45.5zM512 811q-116 0 -214.5 -57.5t-155.5 -155.5t-57 -214
t57 -214t155.5 -155.5t214.5 -57.5t214 57.5t155.5 155.5t57.5 214t-57.5 214t-155.5 155.5t-214 57.5zM512 43q-93 0 -171.5 45.5t-124 124t-45.5 171.5t45.5 171.5t124 124t171.5 45.5t171.5 -45.5t124 -124t45.5 -171.5t-45.5 -171.5t-124 -124t-171.5 -45.5zM512 213
q-46 0 -85 23.5t-62 62.5h-71q24 -62 88 -106t130 -44t130 44t88 106h-71q-23 -39 -62 -62.5t-85 -23.5z" />
    <glyph glyph-name="ic_knowledge_border_1" unicode="&#xe649;" 
d="M572 64h-120q-13 0 -23.5 -8.5t-10.5 -21t10.5 -21.5t23.5 -9h120q13 0 23.5 9t10.5 21q0 13 -9.5 21.5t-24.5 8.5zM623 158h-222q-13 0 -23.5 -9t-10.5 -21t10.5 -21t23.5 -9h218q13 0 23.5 9t10.5 21q0 10 -9 20t-21 10zM512 717q92 0 159.5 -63.5t70.5 -150.5
q0 -52 -23.5 -93.5t-57.5 -68.5q-38 -38 -38 -76v-22h-218v22q0 49 -42 85q-77 64 -77 158q0 86 66.5 147.5t159.5 61.5zM512 768q-115 0 -196 -77.5t-81 -187.5q0 -58 25 -110t73 -90q21 -14 21 -43v-21q0 -22 15.5 -36.5t35.5 -14.5h218q22 0 36.5 15.5t14.5 35.5v21
q0 22 21 43q99 84 99 200q-4 110 -85.5 187.5t-196.5 77.5z" />
    <glyph glyph-name="ic_letters_px1" unicode="&#xe64a;" 
d="M299 427h85v-86h-85v86zM469 256h86v-85h-86v85zM299 768h85v-85h-85v85zM469 427h86v-86h-86v86zM128 768h85v-85h-85v85zM469 597h86v-85h-86v85zM640 427h85v-86h-85v86zM469 768h86v-85h-86v85zM640 768h85v-85h-85v85zM299 597h85v-85h-85v85zM640 597h85v-85h-85
v85zM299 256h85v-85h-85v85zM640 256h85v-85h-85v85zM811 427h85v-86h-85v86zM811 256h85v-85h-85v85zM128 597h85v-85h-85v85zM811 768h85v-85h-85v85zM811 597h85v-85h-85v85zM128 427h85v-86h-85v86zM128 256h85v-85h-85v85zM469 85h86v-85h-86v85zM299 85h85v-85h-85v85
zM640 85h85v-85h-85v85zM128 85h85v-85h-85v85z" />
    <glyph glyph-name="ic_pause_black_px1" unicode="&#xe64b;" 
d="M256 85h171v598h-171v-598zM597 683v-598h171v598h-171z" />
    <glyph glyph-name="ic_learned_px1" unicode="&#xe64c;" 
d="M512 875q160 0 289 -93.5t178 -246.5q31 -92 23 -189.5t-53 -183.5q-45 -87 -118.5 -151t-167.5 -94q-77 -24 -151 -24q-160 0 -289 93.5t-178 246.5q-23 78 -24 155t24.5 150t68.5 134t106.5 108t140.5 71t151 24zM512 896q-81 0 -158 -26q-79 -25 -145.5 -74
t-111.5 -112.5t-71 -139.5t-25.5 -156t25.5 -162q52 -161 187 -257.5t299 -96.5q81 0 158 26q79 25 145.5 74t111.5 112.5t71 139.5t25.5 156t-25.5 162q-52 161 -187 257.5t-299 96.5zM305 192l-15 45l-53 -17q-23 -7 -39 -13q-7 -2 -16 -6t-11 -5l-7 22q1 0 5 1t6 1
q2 1 8 2t9 2l19 6q7 3 24 7q8 3 22.5 8t19.5 7q22 8 26 10q0 -2 1 -6t1 -6l2 -6t2.5 -6.5t1.5 -7.5l11 -32q4 -8 4 -15l3.5 -7l3.5 -7l-19 -7l-5 13l-91 -30l17 -51q0 -2 1 -4l1.5 -3t1.5 -2q0 -4 4 -4h9q2 0 15 4q17 5 25 9q17 4 24 8q13 5 17 7t8 6q2 1 3 5t2 6v19
q9 -10 23 -6q0 -17 -2 -22q0 -9 -6 -12q-1 -2 -15 -11q-2 -1 -7 -3t-9.5 -3.5t-9.5 -2.5q-11 -3 -26 -8q-4 -1 -12.5 -4.5t-12.5 -4.5q-18 -3 -24 -6q-9 -3 -12 0q-6 3 -9 8q-4 9 -6 17l-20 58l-6 19q-4 9 -4 11q2 0 5 1t5 1q2 1 6 2t5 2h4v-4q0 -1 -1 -2t-1 -2v-4l2 -7z
M431 194l-26 -8l-8 25l25 9zM580 316q5 1 13.5 4.5t10.5 3.5q13 5 17 7l13 -39l-15 -6l-7 21l-134 -42l8 -24l-19 -6l-13 40l20 7q17 4 27 8l62 19q1 2 2 6.5t2 6.5q3 4 3 15q0 2 1 6.5t1 6.5v11q4 -3 10 -3q3 0 6 -1t5 -1t2 -2t-2 -4q0 -1 -0.5 -2t-1.5 -3.5t-2 -5.5
q-1 -2 -4 -10t-5 -13zM486 290q-1 1 -2 3l-2 4l-6 6l-7 6l-4 5l15 12l11 -10l10 -11zM563 207q-4 -1 -12.5 -4.5t-12.5 -4.5q-9 -2 -22 -6t-17 -6q-6 -3 -15 -7l-6 19q2 2 8 3t9 2q13 4 17 4q13 4 21 6q12 3 26 9l-4 15q16 13 23 23l-47 -15q-23 -7 -28 -10l-4 15q3 0 6.5 1
t4.5 1q2 0 11 4q2 1 6 2t6 2q5 2 17 7q9 2 22 6t15 4l5 2.5l5 2.5q1 0 3.5 1t3.5 1l6 -19q-1 0 -3 -1.5t-3 -1.5q-1 -1 -3.5 -2t-3.5 -2q0 -1 -4 -3.5t-6 -4.5q-9 -9 -13 -15l2 -7q7 3 21 8t20 7q21 9 29 11l7 -19q-1 -1 -13 -4.5t-19 -4.5q-14 -6 -43 -13l11 -30q0 -1 1 -4
t1 -4q0 -2 -4 -6l-9 -9q-4 -2 -17 -11q-3 10 -13 20l13 4q6 0 6 4q3 2 3 4v5zM529 309q0 2 -4 7q-1 1 -2 3t-2.5 3t-2.5 3t-2 3.5t-2 3.5t-2 3l17 8q1 0 3.5 -4t5.5 -6q1 -2 4 -6.5t4 -6.5zM715 286l-26 -9l-8 26l25 8zM890 446q0 -9 4 -17l32 -118q2 -4 2 -12.5t-4 -10.5
q-4 -8 -13 -11q-13 -8 -24 -12q0 1 -1 2t-1 2q-1 1 -2 3t-2 3t-2 3.5t-2 3.5l-4 4q17 4 19 4q8 4 10 7q5 4 5 8q0 6 -2 11l-30 106q-11 -3 -26.5 -8t-20.5 -7l-32 -10q-5 -1 -13.5 -4.5t-10.5 -4.5l-19 -6l-6 19q25 6 32 9q10 4 40 12q17 7 43 15q4 1 28 9zM881 333
q-13 -9 -19 -15q-4 -4 -12.5 -10t-11.5 -7q-4 -3 -11.5 -9.5t-11.5 -9.5q-9 -7 -21 -20q-1 1 -4 5t-5 6q-6 6 -8 11q14 7 27 17q17 13 26 17q17 13 23 17q9 6 22 15q0 -3 1 -5.5t1 -3.5q0 -4 4 -8zM834 339q-2 1 -5 3.5t-6 3.5l-12 6q-9 4 -15 4q-3 1 -8 2.5t-7 2.5l8 19
q4 -1 13 -4.5t15 -4.5q4 -2 14 -5t14 -5zM631 687l-21 11l-38 -75l21 -11zM448 634l-26 79l-23 -9l26 -79zM762 521l-9 23l-79 -26l9 -23zM326 544l-74 38l-11 -21l75 -38zM646 137q2 -18 -7 -32.5t-27 -21.5q-16 -5 -33 1.5t-24 22.5l-24 -9q11 -24 37 -35t53 -3t40.5 31.5
t8.5 51.5zM311 373l-8 24l-79 -26l9 -23zM386 343l26 9q-25 24 -30 49q-16 48 7.5 93t71.5 61t93.5 -7.5t59.5 -71.5q8 -24 5 -58l25 9q3 28 -6 57q-19 58 -73.5 85.5t-112.5 8.5q-57 -19 -85 -73.5t-9 -111.5q11 -32 28 -50zM107 252q-21 68 -21.5 134.5t21.5 130t59 116.5
t92.5 94t121.5 62q61 22 132 22q138 0 249 -80t154 -210l19 6q-45 139 -162 222t-260 83q-72 0 -139 -21q-69 -23 -127 -66t-97 -98.5t-62 -122t-23 -136.5t21 -143zM892 190q-37 -74 -101 -129t-147 -82q-61 -22 -132 -22q-103 0 -190 45l-28 -8q100 -58 218 -58
q72 0 139 21q91 30 161 93.5t107 147.5z" />
    <glyph glyph-name="ic_print_px1" unicode="&#xe64d;" 
d="M832 623h-55v188h-530v-188h-55q-45 0 -76 -31t-31 -76v-345h158v-214h534v214h162v345q0 45 -31 76t-76 31zM299 755h426v-132h-426v132zM725 13h-426v239h426v-239zM883 226h-106v81h-530v-81h-106v290q0 23 16.5 39.5t38.5 16.5h640q22 0 36.5 -16.5t14.5 -39.5z
M512 491h-239q-10 0 -18 -8t-8 -18t8 -18t18 -8h239q10 0 18 8t8 18t-8 18t-18 8z" />
    <glyph glyph-name="ic_question_black_1" unicode="&#xe64e;" 
d="M597 171h-426v-86h426v86zM853 512h-682v-85h682v85zM171 256h682v85h-682v-85zM171 683v-86h682v86h-682z" />
    <glyph glyph-name="ic_play_px1" unicode="&#xe64f;" 
d="M341 683v-598l470 299z" />
    <glyph glyph-name="ic_position_px1" unicode="&#xe650;" 
d="M512 811q-124 0 -211.5 -87.5t-87.5 -211.5q0 -63 31 -143t75 -149.5t87.5 -130.5t74.5 -96l31 -36q12 14 32 37.5t71.5 92.5t91 134t72 146.5t32.5 144.5q0 124 -87.5 211.5t-211.5 87.5zM512 405q-44 0 -75.5 31.5t-31.5 75.5t31.5 75.5t75.5 31.5t75.5 -31.5
t31.5 -75.5t-31.5 -75.5t-75.5 -31.5z" />
    <glyph glyph-name="ic_right_px1" unicode="&#xe651;" 
d="M346 13q-30 0 -47 17l-282 281q-19 20 -19 45.5t19 44.5t44.5 19t45.5 -19l239 -230l567 563q19 19 44.5 19t45 -19t19.5 -45t-19 -45l-610 -610q-22 -21 -47 -21z" />
    <glyph glyph-name="ic_selected_px1" unicode="&#xe652;" 
d="M375 218l-179 179l-59 -60l238 -239l512 512l-59 60z" />
    <glyph glyph-name="ic_share_px1" unicode="&#xe653;" 
d="M768 210q-47 0 -84 -33l-304 177q4 18 4 30t-4 30l301 175q37 -34 87 -34q53 0 90.5 37.5t37.5 90.5t-37.5 90.5t-90.5 37.5t-90.5 -37.5t-37.5 -90.5q0 -13 4 -30l-301 -176q-37 35 -87 35q-53 0 -90.5 -37.5t-37.5 -90.5t37.5 -90.5t90.5 -37.5q50 0 87 35l304 -178
q-4 -14 -4 -28q0 -51 36.5 -87.5t88.5 -36.5t88.5 36.5t36.5 88t-36.5 88t-88.5 36.5z" />
    <glyph glyph-name="ic_star_border_px1" unicode="&#xe654;" 
d="M939 502l-307 26l-120 283l-120 -283l-307 -26l233 -202l-70 -300l264 159l264 -159l-70 300zM512 239l-160 -97l42 183l-141 123l186 16l73 172l73 -173l187 -16l-142 -123l43 -182z" />
    <glyph glyph-name="ic_star_px1" unicode="&#xe655;" 
d="M512 159l264 -159l-70 300l233 202l-307 26l-120 283l-120 -283l-307 -26l233 -202l-70 -300z" />
    <glyph glyph-name="ic_report_px1" unicode="&#xe656;" 
d="M811 768h-598q-35 0 -60 -25t-25 -60v-598q0 -35 25 -60t60 -25h598q35 0 60 25t25 60v598q0 35 -25 60t-60 25zM828 90q0 -10 -6 -16t-16 -6h-588q-10 0 -16 6t-6 16v588q0 10 6 16t16 6h584q10 0 15.5 -6t5.5 -16v-588h5zM299 469h85v-298h-85v298zM469 597h86v-426
h-86v426zM640 341h85v-170h-85v170z" />
    <glyph glyph-name="ic_schedule_px1" unicode="&#xe657;" 
d="M512 811q-116 0 -214.5 -57.5t-155.5 -155.5t-57 -214t57 -214t155.5 -155.5t214.5 -57.5t214 57.5t155.5 155.5t57.5 214t-57.5 214t-155.5 155.5t-214 57.5zM512 43q-93 0 -171.5 45.5t-124 124t-45.5 171.5t45.5 171.5t124 124t171.5 45.5t171.5 -45.5t124 -124
t45.5 -171.5t-45.5 -171.5t-124 -124t-171.5 -45.5zM533 597h-64v-256l224 -134l32 52l-192 114v224z" />
    <glyph glyph-name="ic_warning_black_p2" unicode="&#xe658;" 
d="M43 0h938l-469 811zM555 128h-86v85h86v-85zM555 299h-86v170h86v-170z" />
    <glyph glyph-name="ic_wrong_px1" unicode="&#xe659;" 
d="M610 384l269 269q19 19 19 47.5t-19 50.5q-19 19 -47.5 19t-50.5 -19l-269 -269l-269 265q-19 19 -47.5 19t-50.5 -19q-19 -20 -19 -48t19 -50l269 -265l-269 -269q-19 -19 -19 -47.5t19 -50.5q19 -19 47.5 -19t50.5 19l269 269l269 -269q19 -19 47.5 -19t50.5 19
q19 19 19 47.5t-19 50.5z" />
    <glyph glyph-name="ic_volume_up_black_1" unicode="&#xe65a;" 
d="M128 512v-256h171l213 -213v682l-213 -213h-171zM704 384q0 49 -31.5 99.5t-75.5 72.5v-344q49 24 78 70t29 102zM597 758v-88q94 -28 154 -107t60 -179t-60 -179t-154 -107v-88q130 29 214.5 133.5t84.5 240.5t-84.5 240.5t-214.5 133.5z" />
    <glyph glyph-name="ic_user_px1" unicode="&#xe65b;" 
d="M640 311q54 34 86.5 90t32.5 124q0 99 -73.5 171t-173.5 72t-173.5 -73t-73.5 -174q0 -66 31.5 -122t87.5 -92q-96 -38 -155 -122t-63 -189h60q0 48 21 98q30 60 60 89q42 42 90 60q42 22 111 22q54 0 111 -22q59 -30 89 -60q38 -37 60 -89q21 -37 21 -98h60
q3 106 -55.5 191t-153.5 124zM329 521q0 69 55 132q49 55 132 55q77 0 132.5 -55.5t55.5 -131.5q0 -70 -55 -133q-56 -55 -133 -55t-132 55.5t-55 132.5z" />
    <glyph glyph-name="ic_xuexibaoku_px1" unicode="&#xe65c;" 
d="M777 768h-530q-25 0 -42 -17t-17 -43v-644q0 -28 17 -46t42 -18h530q25 0 42 17t17 43v648q0 26 -17 43t-42 17zM491 708v-179l-9 9l-30 29q-6 7 -14.5 7t-15.5 -7l-34 -42v183h103zM329 708v-239q0 -12 8.5 -21t20.5 -9q27 0 56 22l30 30l30 -30q21 -22 51 -22
q13 0 21.5 9t8.5 21v239h222v-537h-530v533zM247 60v47h530v-47h-530z" />
    <glyph glyph-name="ic_vertical_align_to1" unicode="&#xe65d;" 
d="M341 427h128v-427h86v427h128l-171 170zM171 768v-85h682v85h-682z" />
    <glyph glyph-name="ic_arrow_drop_down_1" unicode="&#xe65e;" 
d="M299 469l213 -213l213 213h-426z" />
    <glyph glyph-name="ic_arrow_drop_up_p1" unicode="&#xe65f;" 
d="M299 299l213 213l213 -213h-426z" />
    <glyph glyph-name="QQkongjian_px" unicode="&#xe660;" 
d="M759 431q8 9 8 19t-4 14l-4 5l-529 -4l397 -51q-303 -171 -324 -196q-11 -12 -11 -23.5t5 -17.5l6 -6l478 21v9l-320 25q0 -4 70 43t144 99.5t84 62.5zM777 192l51 -4l-51 -5l51 -290l-316 171l-316 -166l60 349l-256 252l354 51l158 320l158 -320l354 -51l-256 -247z
" />
    <glyph glyph-name="weibo_px" unicode="&#xe661;" horiz-adv-x="1450" 
d="M141 896zM986 236q-14 5 -15 6q-5 5 0 9l3 3l3 3q3 3 3 6q0 2 1.5 5t1.5 4q0 6 3 12v15q0 3 -6 15l-5 7.5t-4 7.5q-11 11 -27 15q-19 4 -33 0q-6 -2 -16.5 -3.5t-16.5 -2.5q-18 -6 -24 -9l-14 -9q-2 0 -6.5 -1.5t-5.5 -1.5h-9l-3 3v6v6q0 6 3 9l3 9v18q0 6 -6 17.5
t-12 14.5q-3 2 -9 6.5t-9 5.5q-9 3 -30 3q-24 -6 -39 -9q-27 -9 -54 -26q-29 -20 -44 -39q-15 -12 -39 -36q-21 -21 -27 -30l-9 -12q-27 -32 -36 -66q-9 -35 -9 -47v-15q5 -38 21 -66q17 -30 42 -45q15 -12 57 -30q31 -13 62 -18l63 -8q54 -5 116 8q61 13 111 45
q54 35 72 78q11 24 11 51q0 21 -8 38q-12 18 -21 27q-5 5 -13.5 10.5t-10.5 7.5q-9 0 -15 3zM756 3q-77 -4 -137 33q-57 35 -57 90q0 53 57 92q53 37 137 42q83 5 137 -27q57 -30 57 -83q0 -55 -57 -99q-62 -48 -137 -48zM735 209q-21 0 -39 -9t-27 -18q-3 -3 -9 -10t-9 -10
q-9 -14 -9 -24q-2 -9 -2 -21v-24q0 -6 2 -9q0 -3 1.5 -7t1.5 -5q1 -1 3.5 -5.5t5.5 -6.5q3 -6 15 -12q51 -23 93 -15q40 8 69 42q12 18 14 33q5 21 -2 39q-5 18 -18 35q-11 14 -36 24q-20 8 -54 3zM708 69h-9q-6 0 -9 3l-6 3q-1 0 -2.5 1.5t-3.5 1.5l-3 3q0 1 -1.5 2.5
t-1.5 3.5v6q0 9 6 15q1 1 5 6t7 9q12 6 18 6h12q2 0 6.5 -1.5t5.5 -1.5q2 -2 5 -3.5t4 -3t2.5 -4.5t3.5 -4q0 -2 1.5 -5t1.5 -4q0 -9 -6 -15q-1 -3 -3.5 -5l-5 -4t-3.5 -3q-6 -6 -24 -6zM771 123q-3 -3 -12 -3q-3 0 -9 6l-3 3v6v3l6 3q0 3 3 3l3 3q3 3 12 3q3 0 9 -6
q3 -3 3 -6q0 -6 -3 -6q-2 0 -5 -4.5t-4 -4.5zM1040 278q6 0 9 3q1 1 2.5 2t2 2t0.5 2l3 6v3q9 85 -59 98q-22 5 -39 0q-6 0 -9 -3q-1 -1 -2.5 -2t-2.5 -1.5t-1 -2.5q-3 -2 -3 -8t6 -12t12 -6q58 13 63 -39q0 -18 -3 -24q0 -6 6 -12t15 -6zM1025 490q-25 7 -90 -3h-3v-3
q-3 -1 -7.5 -4l-7.5 -5q-6 -12 -6 -15q0 -13 9 -18q9 -9 18 -9h12q3 0 6 3q6 3 9 3h27q6 0 24 -6t27 -12l26 -18q5 -4 12.5 -13t11.5 -13q18 -44 9 -87v-6q0 -3 -3 -6q0 -3 -3 -6v-6q0 -9 3 -12q6 -6 9 -6q2 0 6.5 -1.5t5.5 -1.5q20 0 24 27q12 24 12 57t-3 47.5t-15 38.5
q-6 12 -24 30q-6 6 -30 24l-30 15q-4 2 -14 3.5t-15 2.5z" />
    <glyph glyph-name="ic_alarm_px1" unicode="&#xe662;" 
d="M939 652l-197 165l-55 -66l197 -164zM336 751l-54 66l-197 -165l55 -65zM533 555h-64v-256l203 -122l32 53l-171 101v224zM512 725q-104 0 -192.5 -51t-140 -139.5t-51.5 -193t51.5 -193t140 -140t192.5 -51.5t192.5 51.5t140 140t51.5 193t-51.5 193t-140 139.5
t-192.5 51zM512 43q-124 0 -211.5 87t-87.5 211t87.5 211.5t211.5 87.5t211.5 -87.5t87.5 -211.5t-87.5 -211t-211.5 -87z" />
    <glyph glyph-name="ic_arrow_forward_p1" unicode="&#xe663;" 
d="M512 725l-60 -60l238 -238h-519v-86h519l-238 -238l60 -60l341 341z" />
    <glyph glyph-name="ic_backspace_px1" unicode="&#xe664;" 
d="M896 427h-605l153 153l-60 60l-256 -256l256 -256l60 60l-153 153h605v86z" />
    <glyph glyph-name="ic_audio_px1" unicode="&#xe665;" 
d="M427 192l256 192l-256 192v-384zM512 811q-116 0 -214 -57.5t-155.5 -155.5t-57.5 -214t57.5 -214t155.5 -155.5t214 -57.5t214 57.5t155.5 155.5t57.5 214t-57.5 214t-155.5 155.5t-214 57.5zM512 43q-93 0 -171.5 45.5t-124 124t-45.5 171.5t45.5 171.5t124 124
t171.5 45.5t171.5 -45.5t124 -124t45.5 -171.5t-45.5 -171.5t-124 -124t-171.5 -45.5z" />
    <glyph glyph-name="ic_close_black_px1" unicode="&#xe666;" 
d="M661 503l-30 30l-119 -119l-119 119l-30 -30l119 -119l-119 -119l30 -30l119 119l119 -119l30 30l-119 119z" />
    <glyph glyph-name="ic_arrow_upward_px1" unicode="&#xe667;" 
d="M171 384l60 -60l238 238v-519h86v519l238 -239l60 61l-341 341z" />
    <glyph glyph-name="ic_edit_px1" unicode="&#xe668;" 
d="M128 160v-160h160l472 472l-160 160zM884 596q12 12 12 29.5t-12 30.5l-100 100q-13 12 -30.5 12t-29.5 -12l-78 -78l160 -160z" />
    <glyph glyph-name="ic_data_px1" unicode="&#xe669;" 
d="M555 809v-130q109 -16 182.5 -99.5t73.5 -195.5q0 -54 -21 -108l111 -66q38 83 38 174q0 109 -51 202.5t-139 152.5t-194 70zM512 85q-124 0 -211.5 87.5t-87.5 211.5q0 112 73.5 195.5t182.5 99.5v130q-106 -11 -194 -69.5t-139 -152.5t-51 -203q0 -116 57 -214
t155.5 -155.5t214.5 -57.5q104 0 194 47t149 128l-110 65q-37 -46 -105 -79t-127 -33h-1z" />
    <glyph glyph-name="ic_equalizer_px1" unicode="&#xe66a;" 
d="M427 43h170v682h-170v-682zM171 43h170v341h-170v-341zM683 512v-469h170v469h-170z" />
    <glyph glyph-name="ic_feedback_px1" unicode="&#xe66b;" 
d="M1024 341q0 -85 -41.5 -159.5t-116.5 -126.5v-183l-183 111q-52 -9 -77 -9q-89 0 -167 30.5t-136 85.5l47 29q110 -89 256 -89q30 0 89 8l124 -72v119q72 43 115 110.5t43 145.5q0 116 -90 205q0 43 -12 81q69 -52 109 -126.5t40 -159.5zM418 162q114 0 210 48.5t152 133
t56 185.5q0 99 -56 183.5t-152.5 134t-209.5 49.5t-209.5 -48.5t-152.5 -133t-56 -185.5q0 -85 41.5 -159.5t116.5 -126.5v-183l183 111q52 -9 77 -9zM444 354v47h-47v-47h47zM444 444q0 6 1 11.5t4 11t5 9.5t7 10t7.5 8.5l9 9l8.5 8.5l8 8l8 8t7 7.5t7 8.5t5 8t4.5 9.5
t2.5 10.5t1 13q0 44 -33 77t-78 33q-44 0 -76 -30.5t-35 -75.5h47q3 25 20.5 40t43.5 15t45 -19t19 -45q0 -32 -38 -55q-15 -12 -23 -20t-16 -24.5t-8 -36.5h47zM785 529q0 -86 -48.5 -158.5t-133 -115t-185.5 -42.5q-30 0 -89 9l-124 -73v120q-72 42 -115 110t-43 146
q0 86 48.5 158.5t133 115t185.5 42.5q102 2 188 -39.5t134.5 -114t48.5 -158.5z" />
    <glyph glyph-name="ic_fullscreen_black_2" unicode="&#xe66c;" 
d="M299 299h-86v-214h214v86h-128v128zM213 469h86v128h128v86h-214v-214zM725 171h-128v-86h214v214h-86v-128zM597 683v-86h128v-128h86v214h-214z" />
    <glyph glyph-name="ic_help_px1" unicode="&#xe66d;" 
d="M469 128h86v85h-86v-85zM512 811q-116 0 -214 -57.5t-155.5 -155.5t-57.5 -214t57.5 -214t155.5 -155.5t214 -57.5t214 57.5t155.5 155.5t57.5 214t-57.5 214t-155.5 155.5t-214 57.5zM512 43q-93 0 -171.5 45.5t-124 124t-45.5 171.5t45.5 171.5t124 124t171.5 45.5
t171.5 -45.5t124 -124t45.5 -171.5t-45.5 -171.5t-124 -124t-171.5 -45.5zM512 640q-71 0 -121 -50t-50 -121h86q0 36 25 61t60 25t60 -25t25 -61q0 -23 -13 -41t-32 -31.5t-37.5 -29.5t-32 -44.5t-13.5 -66.5h86q0 26 13 48t32 38.5t37.5 33t32 40.5t13.5 53q0 71 -50 121
t-121 50z" />
    <glyph glyph-name="ic_info_px1" unicode="&#xe66e;" 
d="M469 171h86v256h-86v-256zM512 811q-116 0 -214 -57.5t-155.5 -155.5t-57.5 -214t57.5 -214t155.5 -155.5t214 -57.5t214 57.5t155.5 155.5t57.5 214t-57.5 214t-155.5 155.5t-214 57.5zM512 43q-93 0 -171.5 45.5t-124 124t-45.5 171.5t45.5 171.5t124 124t171.5 45.5
t171.5 -45.5t124 -124t45.5 -171.5t-45.5 -171.5t-124 -124t-171.5 -45.5zM469 512h86v85h-86v-85z" />
    <glyph glyph-name="ic_knowledge_px1" unicode="&#xe66f;" 
d="M572 64h-120q-13 0 -23.5 -8.5t-10.5 -21t10.5 -21.5t23.5 -9h120q13 0 23.5 9t10.5 21q0 13 -9.5 21.5t-24.5 8.5zM623 158h-222q-13 0 -23.5 -9t-10.5 -21t10.5 -21t23.5 -9h218q13 0 23.5 9t10.5 21q0 10 -9 20t-21 10zM512 768q-115 0 -196 -77.5t-81 -187.5
q0 -58 25 -110t73 -90q21 -14 21 -43v-21q0 -22 15.5 -36.5t35.5 -14.5h218q22 0 36.5 15.5t14.5 35.5v21q0 22 21 43q99 84 99 200q-4 110 -85.5 187.5t-196.5 77.5z" />
    <glyph glyph-name="logo_px" unicode="&#xe670;" 
d="M583 603h50q7 0 9 -3q1 0 4 -1t4 -1h9q1 0 4 -1t4 -1h4q3 0 5 -2h2v11q-1 0 -4.5 1t-4.5 1q-35 6 -71 6t-74 -6q-2 0 -6.5 -1t-6.5 -1l6 -9q26 7 51 7h15zM602 326v-6q4 -5 6 -5h9q-7 2 -15 11zM587 45l-57 82q1 -1 2 -3t2 -3q29 -50 53 -76zM602 619q39 0 74 -6
q4 0 6 -2v32h-15q-15 0 -53 -5q-8 0 -12 -2q-9 0 -15 -2q-4 -1 -13.5 -2t-13.5 -2q-19 -2 -58 -11h-2l7 -8q3 0 9.5 1t9.5 1q41 6 76 6zM536 404l-2 2l-2 2q-4 5 -4 7q-4 4 -9 6v-17l3 -2l2 -4q0 -2 2 -2h17q-3 2 -4.5 4.5t-2.5 3.5zM855 795q0 -1 1 -3.5t1 -3.5q1 -1 2 -3
t2 -3q4 -6 13 -6q11 0 17 2q13 4 17 6q13 4 19 9q3 1 9.5 4t9.5 4q13 4 17 8l12 7h-44v80h-82v-82q2 -2 4 -9q-2 -3 2 -10zM811 782q8 -13 12 -17q11 -10 17.5 -12.5t18.5 -2.5q7 0 19.5 4.5t16.5 6.5q5 2 16 7.5t16 7.5q9 5 26 14t25 13q2 1 8 4.5t8 6.5h-6q-4 -5 -8 -5
q-2 0 -5 -2t-6 -3.5t-6 -2.5t-8.5 -4t-8.5 -4.5t-9.5 -4.5t-9.5 -4q-13 -4 -19 -8q-2 -2 -9 -2q-2 0 -5 -1.5t-5 -1.5q-10 -3 -19 0q-4 0 -9 5l-6 6l-6 13q-2 4 -2 10q0 4 -2 7v2h-51q1 -2 3 -5.5t3 -5.5q2 -3 4.5 -7.5t4 -7.5t2.5 -6zM929 774q-11 -5 -32 -17
q-3 -1 -8 -3.5t-9 -3.5q-12 -4 -19 -4q-14 0 -21 2q-8 4 -10 7q-1 0 -3 1.5t-3.5 3t-2.5 3.5l-12 19q-9 13 -11 21q-4 9 -6 15h-23v-82h82v-83h82v76h80v85h-14q-4 -2 -10 -5.5t-9 -5.5q-6 -3 -23 -13t-28 -16zM87 833q10 0 31 -9q11 -4 32 -17q1 0 2 -1t2 -1t2 -1t2 -1
q5 -4 9 -6q1 0 2 -1t2 -1t2 -1t2 -1q-1 -2 2 -5l2 -2l3 -2q34 -14 38 -15q22 -6 44 -6q32 0 46 4q15 2 49 11q10 2 32 10l-76 108h-315l44 -63q2 0 8 1t9 1q17 0 26 -2zM437 343h-2h2zM716 643h-32v-32h2q1 0 4.5 -1t4.5 -1q12 -4 17 -6q1 0 2 -1.5t2 -1.5h4q1 -1 4 -2t4 -2
t4.5 -2t4.5 -2q1 0 2 -1t2 -1t2 -1t2 -1q1 -1 2 -1.5l3 -1.5t4 -1l8 -5q1 -1 3 -2l4 -2v70h-13q-25 0 -40 -2zM598 330l-24 23q-3 5 -10.5 13t-10.5 13q-2 2 -5 6t-5 6q-1 1 -2.5 3.5t-2.5 3.5h-16q0 -1 1 -2t1 -2q2 -3 5 -7t5 -6q10 -13 23 -23q13 -13 43 -38v6q-2 2 -2 4z
M749.5 250q-4.5 0 -6.5 2h-2h-2q-2 0 -6.5 1t-6.5 1q-2 1 -6 2t-6 2t-6.5 2.5t-6.5 2.5q-32 12 -53 27q-1 1 -3 2t-3 2t-3 2t-3 2l-5 3l-2 2q-1 1 -3 2t-3 2q-4 4 -6 4h-9q2 -2 6.5 -5t6.5 -5q2 -1 6 -4.5t6 -4.5q5 -3 13.5 -8.5t12.5 -8.5q22 -14 53 -25q8 -4 25 -9l25 -6
q4 0 7 -2l-9 13h-6q0 4 -4.5 4zM450 307zM636 309l2 -2q1 -1 3 -2t3 -2t3 -2t3 -3q17 -10 51 -27q34 -13 49 -15q4 0 6 -2l-74 106v-47h-55q1 0 2 -1t2 -1zM562 383l19 -25q3 -4 9 -11t10 -11v60h-49q9 -9 11 -13zM422 408l7.5 2.5l7.5 2.5q4 2 15 2h12q3 0 5 -2t7 -4t7 -3
l13 -6q1 0 2 -1t2 -1h5q2 0 2 -2q2 0 2 -2l2 -3q5 -5 8 -14q1 -3 3.5 -8l3.5 -7q6 -17 15 -28q3 -4 8 -12.5t8 -12.5q3 -2 6 -6.5t5 -6.5l2 -2l2 -2l7 -6q6 -9 23 -21q40 -30 50 -36l13 -7l13 -6q1 0 3 -1t3 -1t3 -1t3 -1t3.5 -1t3.5 -1t3 -1t3 -1t3 -1t3 -1t3.5 -1.5
t3.5 -1.5t3 -1t3 -1t3 -1t3 -1h5q4 0 6 -2q2 0 6.5 -1t6.5 -1q8 0 12 -2h38l-29 42q-9 0 -11 2q-23 3 -53 13q-23 8 -54 25q-15 8 -28 17q-2 1 -6 4.5t-7 4.5q-4 2 -12 10q-26 19 -51 44q-3 3 -7.5 8t-8 9t-7.5 7q-2 2 -5.5 6t-5.5 6q0 1 -1 2.5t-1 2.5q0 2 -2 2q0 2 -2 2
l-2 4l-2 2q-1 2 -2.5 3.5t-4 3.5t-4.5 4q-8 4 -13 8q-8 4 -14 9q-1 0 -2 1t-3 1h-2q-1 0 -3 1t-3 1h-15q-10 0 -15 -2q-10 -2 -27 -6.5t-27 -6.5q-17 -4 -26 -8q-2 -1 -6 -2.5t-6 -2.5l10 -16q6 2 23 6q21 0 55 8zM397 349q6 3 19 8.5t19 8.5q2 1 5 2t5 2h15q1 0 3.5 -1
t3.5 -1q8 -4 10 -6h4l2 -2l3 -2l2 -3l2 -2v-12q0 -5 1 -12t1 -12l3 -24l3 -24q3 -21 11 -49l6 -25q4 -17 9 -25q3 -12 10 -24q2 -4 6.5 -11.5t6.5 -11.5q6 -12 15 -21q8 -13 17 -21q10 -13 40 -34q6 -4 23 -12q4 -3 23 -9l25 -6q3 0 7 -1t6 -1h36q4 0 12.5 1t12.5 1
q44 6 91 27q3 2 9.5 5.5t9.5 5.5q9 4 11 6l-45 66q-1 -1 -4 -2.5t-4 -2.5t-3 -2t-3 -2q-1 0 -4 -1t-5 -1q-2 -2 -8 -2q-1 0 -3.5 -1t-5.5 -1q-1 0 -4 -1t-4 -1t-4.5 -1t-4.5 -1h-17q-6 0 -8 -3h-38h-23q-44 12 -72 36q-30 24 -55 64q-15 23 -40 74q-6 12 -15 38l-13 38
q0 1 -1 2t-1 2v2v2l-2 2l-4 4q-8 9 -15 11l-2 2l-2 2q-1 0 -2 1t-2 1h-2h-5h-6h-2q-1 0 -4 -1t-4 -1q-6 -2 -17.5 -5t-16.5 -5.5t-16 -5.5t-16 -5q-13 -4 -55 -15l-29 -44q10 4 36 13q15 9 63 29zM353 480q16 6 50 15q4 1 13.5 3t14.5 3t14.5 2t14.5 2q21 0 30 -2
q1 0 6.5 -2t8.5 -4q4 -2 12 -11q0 -2 2 -2l3 -2l2 -2h25l-8 9q-3 1 -6 4t-5 4l-4 4l-4 4q-12 8 -24 11q-17 4 -25 4q-17 0 -25 -2q-5 -1 -13.5 -2t-12.5 -2q-2 0 -6 -1t-6 -1q-3 -1 -7 -2t-6 -2q-9 -3 -25 -8.5t-22 -6.5q-13 -4 -21 -9l-19 -6q-3 -1 -8 -3t-9 -3l9 -13
q1 0 3 1t3 1q8 5 45 19zM372 548q33 15 61 23q3 1 8.5 3t8.5 3q12 4 17 4q1 0 4 1.5t4 1.5t4 1t4.5 1t4.5 1t4 1t4 1t4 1q4 1 11 2t11 2l-7 9q-19 -3 -57 -11q-12 -2 -34 -7.5t-31 -7.5q-6 -1 -16.5 -4.5t-13.5 -3.5q-6 -1 -15 -4.5t-12 -4.5q-10 -4 -49 -14q-24 -8 -36 -13
l21 -32q6 3 21 11t24 12q17 7 55 24zM348 501q9 4 25 9.5t22 7.5q2 1 6 2t6.5 2t6.5 2t6 3q17 4 28 4q8 2 27 2q11 0 27.5 -4.5t25.5 -12.5q1 -1 3 -2t3 -2l4 -4l11 -11l15 -15h120v-82h82v82h-82v83h57q-15 7 -27 10q-1 0 -4.5 1t-4.5 1t-4 1t-4 1q-2 0 -4 2h-5q-2 0 -4 3
v-19h-82v-83l-74 106q-17 -4 -26 -4q-46 -13 -67 -19q-28 -9 -61 -24q-7 -3 -26.5 -10.5t-28.5 -12.5q-9 -4 -24 -11t-21 -10l13 -19q3 1 8.5 3t8.5 3q7 3 22 8.5t22 8.5zM405 457q17 4 28 4q10 2 31 2q7 0 9 -2h4q1 0 2 -1t2 -1q2 -1 6.5 -4t6.5 -4q8 -5 25 -17v38l-2 2
l-2 4v4q-6 9 -23 13q-9 2 -28 2q-21 0 -54 -8q-39 -10 -51 -15q-9 -3 -25 -8t-22 -7q-1 0 -3 -1t-3 -1l15 -21q10 2 36 10q23 8 48 11zM302 567q23 11 44 17q27 11 49 16q2 1 6 2.5t6.5 2.5t6.5 2t6 2q1 0 3 1t3.5 1t3.5 1t3 1q2 1 7 2t8 2q4 1 13.5 3.5t13.5 3.5q13 4 23 4
l-10 15l-10.5 -3.5l-10.5 -3.5q-5 -1 -14.5 -4t-13.5 -4q-8 -3 -26 -9.5t-27 -9.5q-33 -13 -48 -19q-9 -4 -11 -4q-8 -5 -10 -5q-9 -4 -11 -4q-8 -4 -10 -4q-4 -1 -10 -4t-9 -4q-4 -7 -7 -7q-1 -1 -4 -2t-4 -2q-3 -2 -9.5 -5t-9.5 -6l2 -4q6 2 19 11q7 2 20 8.5t18 8.5z
M106 761h8q21 0 32 -2q25 -5 33 -9q2 0 5 -1t4 -1q2 -2 6 -2q2 0 4 -2q3 0 5 -2q1 0 4 -1t4 -1q25 -4 36 -4h19q3 0 9.5 1t9.5 1q21 3 36 8q5 2 15.5 5.5l16.5 5.5l3 1t5 1q1 0 3 1t3 1q2 3 13 8q13 5 17 7l-2 4q-5 -2 -17 -5.5t-17 -5.5q-60 -15 -97 -12q-24 0 -47 6
q-20 6 -40 19h-2q-2 0 -2 2l-4 4q-2 2 -4 2l-2 3q-5 2 -9 6t-8 6q-15 11 -30 17q-13 5 -29 9q-9 2 -26 2q-12 0 -17 -2l51 -72h4q1 0 3.5 1t3.5 1zM407 383q5 2 17 6q4 1 9 3.5t8 3.5q1 0 4.5 1t4.5 1h21q1 0 2 -1t2 -1l2 -2l2 -3q7 -4 15 -12l4 -5l4 -4q1 -2 3 -2
q0 -2 2 -2q0 -1 1 -2t1 -2l6 -19l7 -19q2 -7 7 -19.5t7 -18.5q15 -35 38 -72q25 -39 53 -61q14 -11 34 -21q15 -10 36 -13h17q12 0 19 -2h33q18 1 64 17l8 4l-31 46h-9q-19 -3 -44 0q-34 5 -53 11q-1 0 -3 1t-3 1t-3.5 1t-3.5 1t-3 1t-3 1t-3 1t-3 1l-13 7l-13 6
q-8 4 -25 17q-1 1 -3 2t-3 2l-9 4l-2 3q-2 2 -6 5t-7 5q-13 10 -23 23l-6 7l-2 2l-2 2q-2 2 -5.5 6t-5.5 7q-13 16 -19 27q-9 15 -15 30q-1 2 -3 7t-3 7q-4 9 -9 13l-2 2l-2 2h-4q-1 0 -2 1t-2 1q-9 5 -15 7l-13 6q-2 0 -4 2h-4h-4q-2 0 -7 -1t-8 -1q-2 0 -6.5 -1t-8.5 -1
l-25 -6l-26 -7q-10 -2 -27 -6l-19 -28q5 2 22 7.5t27 7.5q8 4 19.5 7.5t15.5 5.5zM293 575l43 21q2 1 20 9.5t28 11.5q9 5 13 5q8 4 13 4q1 0 3 1t3 1t3 1t3 1q9 4 13 4q4 1 13.5 4.5t13.5 4.5q13 4 17 6l-82 118q-9 -3 -17 -8q-4 -2 -13.5 -6.5t-13.5 -6.5q-22 -8 -32 -10
q-11 -5 -36 -9q-6 -2 -19 -2h-19q-13 0 -19 2q-6 0 -19 4l-19 7q-1 0 -4 1t-4 1t-4.5 1t-4.5 1q-10 6 -32 10q-4 3 -14 3h-26h-2l144 -209q3 2 8.5 5t8.5 5q21 13 33 19zM401 432q9 2 30 6q2 0 7 1t7 1h17q7 0 9 -2h4q1 0 2 -1t2 -1q9 -4 13 -9q13 -6 15 -8q6 -3 12 -13v17
q-2 2 -4 2q-4 3 -12.5 8.5t-12.5 8.5q-2 1 -6.5 4t-6.5 5q-8 4 -13 4h-14q-11 0 -15 -2q-11 0 -28 -5l-25 -6l-25 -6q-7 -1 -18.5 -4.5t-17.5 -4.5l15 -23q8 4 14 4q13 11 51 24zM287 548q2 0 10 3.5t13 4.5t13 4t13 5q25 9 57 19q42 12 65 16q11 3 36 7q3 1 9.5 2t9.5 2
l-8 11l-26 -7q-4 -1 -13.5 -3t-13.5 -3q-11 -2 -28.5 -7.5t-24.5 -7.5t-23.5 -7.5t-25.5 -9.5q-1 -1 -5 -2t-5 -2q-2 -1 -5.5 -2t-5.5 -2t-5 -2t-5 -2.5t-5.5 -2.5t-5.5 -2q-12 -4 -19 -8q-1 -1 -4 -2t-4 -2t-4.5 -2.5t-4.5 -2.5q-3 -1 -9 -4t-10 -4l2 -4q7 9 32 17z
M260 -103q0 9 4 43l6 25q1 3 4.5 12t4.5 15q2 5 5.5 15.5t4.5 14.5q9 21 13 29q4 10 9 20.5t12 23.5t11 20q12 21 38 67q2 4 5 9t5 8t5.5 8.5t5.5 8.5q0 1 1 2t1 2v2v3v4l-7 -7q-38 -38 -59 -54q-4 -5 -8 -7l-4 -2q-1 0 -2 -1t-3 -1q-14 -10 -16 -11q-4 -2 -9 -5t-8 -5
q-1 0 -2 -1t-2.5 -1t-2.5 -1t-2 -1q-1 -1 -4 -2t-4 -2.5t-4.5 -2.5t-4.5 -2t-4 -2t-4 -2q-3 -1 -8.5 -4t-8.5 -4q-3 -2 -9.5 -5t-12 -5t-10.5 -3q-1 0 -4 -1t-4 -1q-2 0 -4 -2h-5q-8 -5 -14 -5q-1 0 -3.5 -1t-5.5 -1q-1 0 -3.5 -1t-4.5 -1q-2 -1 -7.5 -2t-7.5 -2q4 -8 -2 -8
l-82 -119q1 1 3 2.5t3 2.5l13 6l12 6l13 7q4 2 12.5 7t12.5 7q47 29 53 34l51 38q2 2 6 5.5t6 5.5t6.5 5t6.5 5l6 7l7 6q4 4 6 4h11v-25q0 -2 -3 -2q0 -1 -1 -2t-1 -3q-2 -4 -10 -12q-2 -2 -5.5 -6.5t-5.5 -6.5l-38 -44q-3 -3 -8 -10.5t-9 -10.5l-7 -10.5l-7 -10.5
q-17 -26 -24 -38q-9 -16 -12 -32h107q5 -2 6 0.5t1 7.5zM483 208q-7 27 -10 46q-1 4 -2 11.5t-2 11.5q0 5 -1 12t-1 12q0 8 -3 10q0 4 -2 4v2h-2l-2 3l-2 2l-2 2q-1 1 -3 4t-3 4l-7 7h-2h-2h-2q-13 -5 -19 -9q-6 -2 -19 -7.5t-19 -7.5q-19 -6 -36 -14q-11 -5 -61 -22
l-34 -48q2 0 2 2q4 2 12 5.5t11 5.5q5 2 12 5t12 5l25 13l51 25l12 6l13 7l13 6l6 4l6 5l2 2h2q3 0 3 2q2 0 2 2q1 0 3 1t3 1q4 0 6 -2l5 -4q4 -5 4 -7q1 -1 2 -3t2 -3l2 -2v-80q0 -10 1 -27.5t1 -25.5q4 -34 7 -47q1 -3 2 -9t2 -10l29 43q0 1 -1 2t-1 2q-2 12 -7.5 29.5
t-7.5 23.5zM272 94zM429 96q-1 3 -2.5 9.5t-2.5 9.5q0 3 -1 10.5t-1 10.5v23v25q0 17 2 28q0 4 1 13.5t1 13.5v15v13v2q-2 0 -6 4l-6 6l-2 3q-2 0 -2 -3h-3l-2 -2l-2 -2l-2 -2v4l-2 -2q-1 -1 -3 -2t-3 -2q-5 -3 -13 -8.5t-13 -8.5q-8 -5 -26 -14.5t-26 -14.5l-13 -7l-13 -6
l-12 -6l-13 -7q-17 -8 -51 -21q-2 -1 -5 -2t-5 -2l-68 -97h2q2 1 7.5 2t7.5 2q1 0 3.5 1t4.5 1q1 0 4 1t5 1q2 1 7.5 3.5t7.5 3.5h4q2 0 4 2l9 4q21 8 31 15q1 0 2 1t2.5 1t2.5 1t2 1q1 1 4 2t4 2t4.5 2t4.5 2t2 1.5t2.5 1.5t3.5 2q1 1 4 2t4 2q2 0 3 1t2 1t2 1t2 1
q2 2 7.5 5t7.5 6q6 6 14 10q2 0 3 1t2 1l4 2q4 5 8 7q48 42 57 52q5 5 9 7h10q2 0 2 -2l3 -2v-19q0 -3 -3 -3q0 -1 -1 -2t-1 -2q-2 -3 -5 -8t-5 -8.5t-5.5 -8.5t-5.5 -9q-3 -5 -9.5 -16.5t-9.5 -16.5l-19 -32q-12 -21 -34 -63q-16 -34 -25 -59q-2 -7 -6 -18t-6.5 -19
t-4.5 -14q-6 -22 -6 -40v-15h53l126 184v2q-12 24 -14 38zM737 581q-1 0 -2 1.5t-2 1.5l-9 4q-1 1 -4 2t-4 2h-2q-1 0 -2.5 1t-2.5 1q-3 1 -8 3t-8 3q-2 0 -5 1.5t-4 1.5v-11q1 0 3 -1t3 -1h5q2 0 4 -2q1 0 4 -1t4 -1t4.5 -1t4.5 -1q29 -13 42 -19h8v2q-4 2 -12.5 7t-12.5 7
h-4zM163 -86q12 26 21 40q4 8 14.5 22.5t14.5 22.5q6 8 18.5 23.5t17.5 22.5q2 2 5.5 6.5t5.5 6.5q1 2 4 6t4 6l2 3v2v2v4v8v5q-1 -1 -3 -2t-3 -3q-4 -4 -6 -4l-7 -6q-2 -2 -6 -5.5t-6.5 -5.5t-6.5 -5t-6 -5q-24 -21 -53 -40q-2 -1 -6 -4.5t-6.5 -4.5t-6.5 -4t-6 -4
q-1 -1 -3 -2t-3.5 -2t-3.5 -2.5t-3 -2.5q-2 -1 -6 -4t-7 -4l-12 -6q-1 -1 -3 -2.5t-3.5 -2.5t-3.5 -2t-3 -2l-13 -6l-12 -7l-13 -6q-8 -4 -13 -4l-4 -2l-42 -61h150q4 18 13 31zM274 75zM823 -29q-12 -4 -38 -8q-26 -5 -42 -2q-15 0 -44 4q-30 8 -44 15q-13 8 -43 29
l87 -126h314l-92 133q-22 -13 -36 -19q-23 -12 -62 -26zM766 16q-8 -3 -25 -3h-25q-31 0 -53 9q-4 1 -12.5 4t-12.5 4q-17 9 -24 13q-29 21 -42 36q-8 8 -17 21q-12 19 -14.5 23t-6.5 11.5t-6 12t-5.5 13t-5.5 12.5q-11 31 -25 99q-4 34 -6 49q0 4 -1.5 12t-1.5 11v8v2v2
l-6 7q-4 4 -8 4l-5 2h-10h-4q-2 -1 -5.5 -2t-5.5 -2q-6 -3 -19 -8.5t-19 -8.5q-43 -18 -67 -25q-6 -2 -19.5 -7t-21.5 -6l-10 -15q47 18 55 21q25 9 74 32q2 1 9 4t12 4h10l2 -2l3 -2l4 -4q1 -1 3 -4t3 -4l2 -3l2 -2l2 -2q0 -1 1.5 -2t1.5 -2t1 -3t1 -3q0 -3 1 -6.5t1 -4.5
q2 -8 2 -23q0 -6 4 -23q3 -19 11 -47q4 -15 17 -44q12 -25 19 -36l57 -82l2 -2l17 -17q3 -4 9 -8.5t8 -6.5q1 -1 4 -3t4 -3q2 -1 5 -3.5t5.5 -3.5t5.5 -3t5 -3l4 -2l2 -2l3 -2q7 -5 21 -9l4 -2l4 -2q4 -2 11 -2q2 -1 42 -7q27 0 40 3q25 4 38 8q1 0 4 1t4 1t4.5 1t4.5 1t4 1
t4 1q2 0 5 2q2 0 4 3q1 0 3.5 1t4.5 1q1 0 3 1t4 1q2 1 7 3t7 3q26 13 36 19l-31 44q-22 -12 -32 -16q-31 -31 -85 -38zM460 157q-1 4 -2 12.5t-2 12.5q-4 34 -4 53q0 38 -2 57v6v7l-2 2q-5 4 -5 6q-1 1 -2 3.5t-2 3.5l-2 2h-2h-2h-2h-2l-3 -2q-1 0 -2 -1.5t-2 -1.5l-6 -4
l-6 -4l-13 -6l-13 -7l-12 -6l-13 -6l-13 -7q-1 -1 -3 -2t-3 -2q-1 0 -3 -1t-3 -1l-13 -6q-17 -9 -25 -11q-4 -1 -12 -4.5t-12 -5.5q-10 -6 -23 -9q-2 -1 -5.5 -2t-4.5 -2l-30 -42q8 3 24 10.5t25 10.5l50 25q28 14 53 30q8 4 25 17q1 1 3.5 2t3.5 2l2 2l2 2l2 2l2 2l2 2
q2 0 2 2q1 0 2.5 1.5t2.5 1.5h12q0 -1 1 -2.5t1 -2.5q1 0 2 -2t3 -2q2 -2 4 -2q0 -2 2 -2v-19q0 -11 -2 -15q-4 -38 -4 -53q0 -4 -1.5 -12.5t-1.5 -12.5v-23q0 -19 5 -40q1 -8 4.5 -18t3.5 -12l30 44q-2 7 -7 24q0 -6 0 -1q-1 4 -2 7zM397 231z" />
    <glyph glyph-name="ic_cancel_px1" unicode="&#xe671;" 
d="M512 811q-116 0 -214.5 -57t-155.5 -155.5t-57 -214.5t57 -214.5t155.5 -155.5t214.5 -57t214.5 57t155.5 155.5t57 214.5t-57 214.5t-155.5 155.5t-214.5 57zM725 231l-60 -60l-153 153l-153 -153l-60 60l153 153l-153 153l60 60l153 -153l153 153l60 -60l-153 -153z
" />
  </font>
</defs>
</svg>
