<?xml version="1.0" encoding="utf-8"?>
<!-- Generator: Adobe Illustrator 21.0.0, SVG Export Plug-In . SVG Version: 6.00 Build 0)  -->
<svg version="1.1" id="图层_1" xmlns="http://www.w3.org/2000/svg" xmlns:xlink="http://www.w3.org/1999/xlink" x="0px" y="0px"
	 viewBox="0 0 24 24" style="enable-background:new 0 0 24 24;" xml:space="preserve">
<style type="text/css">
	.st0{fill:none;}
</style>
<rect class="st0" width="24" height="24"/>
<path d="M13.4,19.5h-2.8c-0.4,0-0.8,0.3-0.8,0.7s0.4,0.7,0.8,0.7h2.8c0.4,0,0.8-0.3,0.8-0.7S13.9,19.5,13.4,19.5z M14.6,17.3H9.4
	c-0.4,0-0.8,0.3-0.8,0.7c0,0.4,0.4,0.7,0.8,0.7h5.1c0.4,0,0.8-0.3,0.8-0.7C15.3,17.7,15,17.3,14.6,17.3z M12,3
	C8.4,3,5.5,5.8,5.5,9.2c0,1.8,0.8,3.5,2.3,4.7c0.3,0.2,0.5,0.6,0.5,1v0.5c0,0.7,0.6,1.2,1.2,1.2h5.1c0.7,0,1.2-0.6,1.2-1.2v-0.5
	c0-0.4,0.2-0.7,0.5-1c1.4-1.2,2.3-2.8,2.3-4.7C18.5,5.8,15.6,3,12,3z"/>
</svg>
