<?xml version="1.0" encoding="utf-8"?>
<!-- Generator: Adobe Illustrator 21.0.0, SVG Export Plug-In . SVG Version: 6.00 Build 0)  -->
<svg version="1.1" id="图层_1" xmlns="http://www.w3.org/2000/svg" xmlns:xlink="http://www.w3.org/1999/xlink" x="0px" y="0px"
	 viewBox="0 0 24 24" style="enable-background:new 0 0 24 24;" xml:space="preserve">
<style type="text/css">
	.st0{fill:none;}
</style>
<rect class="st0" width="24" height="24"/>
<path d="M19.5,6.4h-1.3V2H5.8v4.4H4.5C3.1,6.4,2,7.5,2,8.9V17h3.7v5h12.5v-5H22V8.9C22,7.5,20.9,6.4,19.5,6.4z M7,3.3h10v3.1H7
	C7,6.4,7,3.3,7,3.3z M17,20.7H7v-5.6h10V20.7z M20.7,15.7h-2.5v-1.9H5.8v1.9H3.3V8.9c0-0.7,0.6-1.3,1.3-1.3h15
	c0.7,0,1.2,0.6,1.2,1.3L20.7,15.7L20.7,15.7z M12,9.5H6.4c-0.3,0-0.6,0.3-0.6,0.6s0.3,0.6,0.6,0.6H12c0.3,0,0.6-0.3,0.6-0.6
	S12.3,9.5,12,9.5z"/>
</svg>
