<?xml version="1.0" encoding="utf-8"?>
<!-- Generator: Adobe Illustrator 21.0.0, SVG Export Plug-In . SVG Version: 6.00 Build 0)  -->
<svg version="1.1" id="图层_1" xmlns="http://www.w3.org/2000/svg" xmlns:xlink="http://www.w3.org/1999/xlink" x="0px" y="0px"
	 viewBox="0 0 24 24" style="enable-background:new 0 0 24 24;" xml:space="preserve">
<style type="text/css">
	.st0{fill:none;}
</style>
<rect class="st0" width="24" height="24"/>
<path d="M15,13.7c1.6-1,2.8-2.8,2.8-5C17.8,5.6,15.1,3,12,3S6.2,5.6,6.2,8.8c0,2.1,1.1,3.9,2.8,5c-3,1.2-5,4-5.1,7.3h1.4
	c0-0.8,0.2-1.6,0.5-2.3c0.4-0.8,0.8-1.5,1.4-2.1c0.6-0.6,1.3-1.1,2.1-1.4c0.8-0.4,1.7-0.5,2.6-0.5s1.8,0.2,2.6,0.5
	c0.8,0.4,1.5,0.8,2.1,1.4c0.6,0.6,1.1,1.4,1.4,2.1c0.4,0.7,0.5,1.5,0.5,2.3h1.4C20,17.7,17.9,14.9,15,13.7z M7.7,8.8
	c0-1.2,0.5-2.2,1.3-3.1s1.9-1.3,3.1-1.3s2.2,0.4,3.1,1.3s1.3,1.9,1.3,3.1c0,1.2-0.5,2.2-1.3,3.1c-0.8,0.8-1.9,1.3-3.1,1.3
	s-2.2-0.4-3.1-1.3C8.1,11,7.7,9.9,7.7,8.8z"/>
</svg>
