<?xml version="1.0" encoding="utf-8"?>
<!-- Generator: Adobe Illustrator 21.0.0, SVG Export Plug-In . SVG Version: 6.00 Build 0)  -->
<svg version="1.1" id="图层_1" xmlns="http://www.w3.org/2000/svg" xmlns:xlink="http://www.w3.org/1999/xlink" x="0px" y="0px"
	 viewBox="0 0 24 24" style="enable-background:new 0 0 24 24;" xml:space="preserve">
<style type="text/css">
	.st0{fill:none;}
</style>
<rect class="st0" width="24" height="24"/>
<path d="M14.3,12l6.3-6.3c0.6-0.6,0.6-1.6,0-2.3c-0.6-0.6-1.6-0.6-2.3,0L12,9.7L5.7,3.5c-0.6-0.6-1.6-0.6-2.3,0
	c-0.6,0.6-0.6,1.6,0,2.3L9.7,12l-6.3,6.3c-0.6,0.6-0.6,1.6,0,2.3c0.6,0.6,1.6,0.6,2.3,0l6.3-6.3l6.3,6.3c0.6,0.6,1.6,0.6,2.3,0
	c0.6-0.6,0.6-1.6,0-2.3L14.3,12L14.3,12z"/>
</svg>
