<?xml version="1.0" encoding="utf-8"?>
<!-- Generator: Adobe Illustrator 21.0.0, SVG Export Plug-In . SVG Version: 6.00 Build 0)  -->
<svg version="1.1" id="图层_1" xmlns="http://www.w3.org/2000/svg" xmlns:xlink="http://www.w3.org/1999/xlink" x="0px" y="0px"
	 viewBox="0 0 24 24" style="enable-background:new 0 0 24 24;" xml:space="preserve">
<style type="text/css">
	.st0{fill:none;}
</style>
<rect class="st0" width="24" height="24"/>
<path d="M18.2,3H13h-1.4H9.1H7.7H5.8C5,3,4.4,3.6,4.4,4.4v15.1C4.4,20.4,5,21,5.8,21h12.4c0.8,0,1.4-0.6,1.4-1.4V4.4
	C19.6,3.6,19,3,18.2,3z M11.5,4.4v4.2l-0.2-0.2l-0.7-0.7c-0.2-0.2-0.5-0.2-0.7,0l-0.8,1V4.4H11.5z M7.7,4.4V10
	c0,0.4,0.3,0.7,0.7,0.7l0,0c0.5,0,0.9-0.2,1.3-0.5l0.7-0.7l0.7,0.7c0.3,0.3,0.7,0.5,1.2,0.5l0,0c0.4,0,0.7-0.3,0.7-0.7V4.4h5.2V17
	H5.8V4.5L7.7,4.4L7.7,4.4z M5.8,19.6v-1.1h12.4v1.1H5.8z"/>
</svg>
