<?xml version="1.0" encoding="utf-8"?>
<!-- Generator: Adobe Illustrator 21.0.0, SVG Export Plug-In . SVG Version: 6.00 Build 0)  -->
<svg version="1.1" id="图层_1" xmlns="http://www.w3.org/2000/svg" xmlns:xlink="http://www.w3.org/1999/xlink" x="0px" y="0px"
	 viewBox="0 0 24 24" style="enable-background:new 0 0 24 24;" xml:space="preserve">
<style type="text/css">
	.st0{fill:none;}
</style>
<rect class="st0" width="24" height="24"/>
<path d="M24,13c0,2.7-1.4,5.1-3.7,6.7V24L16,21.4c-0.6,0.1-1.2,0.2-1.8,0.2c-2.8,0-5.3-1-7.1-2.7l1.1-0.7c1.6,1.3,3.7,2.1,6,2.1
	c0.7,0,1.4-0.1,2.1-0.2l2.9,1.7l0-2.8c2.2-1.3,3.7-3.5,3.7-6c0-1.8-0.8-3.5-2.1-4.8c0-0.6-0.1-1.3-0.3-1.9C22.6,7.9,24,10.3,24,13z
	 M9.8,17.2c5.4,0,9.8-3.8,9.8-8.6c0-4.7-4.4-8.6-9.8-8.6S0,3.8,0,8.6c0,2.7,1.4,5.1,3.7,6.7v4.3L8,17C8.6,17.1,9.2,17.2,9.8,17.2
	L9.8,17.2z M10.4,12.7v-1.1H9.3v1.1H10.4z M10.4,10.6c0-0.7,0.5-1.1,1-1.6c0.5-0.5,1-0.9,1-1.7c0-1.4-1.2-2.6-2.6-2.6
	c-1.4,0-2.5,1.1-2.6,2.5h1.1c0.1-0.8,0.7-1.3,1.5-1.3c0.8,0,1.5,0.7,1.5,1.5c0,0.6-0.4,1-0.9,1.3c-0.5,0.4-1.1,0.9-1.1,1.9H10.4z
	 M18.4,8.6c0,4.1-3.8,7.4-8.6,7.4c-0.7,0-1.4-0.1-2.1-0.2l-2.9,1.7l0-2.8c-2.2-1.3-3.7-3.5-3.7-6c0-4.1,3.8-7.4,8.6-7.4
	C14.6,1.2,18.4,4.5,18.4,8.6z"/>
</svg>
