<?xml version="1.0" encoding="utf-8"?>
<!-- Generator: Adobe Illustrator 21.0.0, SVG Export Plug-In . SVG Version: 6.00 Build 0)  -->
<svg version="1.1" id="图层_1" xmlns="http://www.w3.org/2000/svg" xmlns:xlink="http://www.w3.org/1999/xlink" x="0px" y="0px"
	 viewBox="0 0 24 24" style="enable-background:new 0 0 24 24;" xml:space="preserve">
<style type="text/css">
	.st0{fill:none;}
</style>
<rect x="7" y="11" width="2" height="2"/>
<rect x="11" y="15" width="2" height="2"/>
<rect x="7" y="3" width="2" height="2"/>
<rect x="11" y="11" width="2" height="2"/>
<rect x="3" y="3" width="2" height="2"/>
<rect x="11" y="7" width="2" height="2"/>
<rect x="15" y="11" width="2" height="2"/>
<rect x="11" y="3" width="2" height="2"/>
<rect x="15" y="3" width="2" height="2"/>
<rect x="7" y="7" width="2" height="2"/>
<rect x="15" y="7" width="2" height="2"/>
<rect x="7" y="15" width="2" height="2"/>
<rect x="15" y="15" width="2" height="2"/>
<rect x="19" y="11" width="2" height="2"/>
<rect x="19" y="15" width="2" height="2"/>
<rect x="3" y="7" width="2" height="2"/>
<rect x="19" y="3" width="2" height="2"/>
<rect x="19" y="7" width="2" height="2"/>
<rect x="3" y="11" width="2" height="2"/>
<rect x="3" y="15" width="2" height="2"/>
<rect x="11" y="19" width="2" height="2"/>
<rect x="7" y="19" width="2" height="2"/>
<rect x="15" y="19" width="2" height="2"/>
<rect x="3" y="19" width="2" height="2"/>
<path class="st0" d="M0,0h24v24H0V0z"/>
</svg>
