<?xml version="1.0" encoding="utf-8"?>
<!-- Generator: Adobe Illustrator 21.0.0, SVG Export Plug-In . SVG Version: 6.00 Build 0)  -->
<svg version="1.1" id="图层_1" xmlns="http://www.w3.org/2000/svg" xmlns:xlink="http://www.w3.org/1999/xlink" x="0px" y="0px"
	 viewBox="0 0 48 48" style="enable-background:new 0 0 48 48;" xml:space="preserve">
<style type="text/css">
	.st0{fill:none;}
</style>
<rect class="st0" width="48" height="48"/>
<circle class="st0" cx="24" cy="24" r="24"/>
<path d="M24,1c10,0,18.8,6.4,21.9,15.9c1.9,5.8,1.4,12.1-1.4,17.5S37,44,31.1,45.9C28.8,46.6,26.4,47,24,47C14,47,5.2,40.6,2.1,31.1
	C-1.8,19,4.8,6,16.9,2.1C19.2,1.4,21.6,1,24,1 M24,0c-2.5,0-5,0.4-7.4,1.2C4,5.3-2.9,18.8,1.2,31.4C4.5,41.6,13.9,48,24,48
	c2.5,0,5-0.4,7.4-1.2C44,42.7,50.9,29.2,46.8,16.6C43.5,6.4,34.1,0,24,0L24,0z M14.3,33l-0.7-2.1l-2.5,0.8c-0.7,0.2-1.3,0.4-1.8,0.6
	c-0.6,0.2-1,0.4-1.3,0.5l-0.3-1c0.1,0,0.3-0.1,0.5-0.1c0.2-0.1,0.5-0.1,0.8-0.2s0.6-0.2,0.9-0.3c0.3-0.1,0.7-0.2,1.1-0.3
	c0.8-0.3,1.5-0.5,2-0.7s1-0.4,1.2-0.5c0,0.2,0.1,0.4,0.1,0.6c0.1,0.3,0.2,0.5,0.3,0.9l0.5,1.5c0.1,0.2,0.2,0.5,0.2,0.7
	c0.1,0.2,0.2,0.5,0.3,0.7l-0.9,0.3l-0.2-0.6l-4.3,1.4l0.8,2.4c0.1,0.2,0.1,0.3,0.2,0.4c0,0.1,0.1,0.2,0.2,0.2c0.1,0,0.2,0,0.4,0
	s0.4-0.1,0.7-0.2c0.4-0.1,0.8-0.2,1.2-0.4c0.4-0.1,0.8-0.2,1.1-0.4c0.3-0.1,0.6-0.2,0.8-0.3s0.3-0.2,0.4-0.3
	c0.1-0.1,0.1-0.3,0.2-0.5c0-0.2,0-0.5,0-0.9c0.3,0.3,0.7,0.4,1.1,0.3c0,0.4,0,0.8-0.1,1c0,0.3-0.1,0.5-0.3,0.6
	c-0.1,0.2-0.4,0.3-0.7,0.5c-0.3,0.1-0.7,0.3-1.2,0.4c-0.4,0.1-0.7,0.2-1.2,0.4c-0.4,0.1-0.8,0.3-1.2,0.4c-0.5,0.1-0.9,0.2-1.1,0.3
	c-0.3,0.1-0.5,0.1-0.6,0c-0.2-0.1-0.3-0.2-0.4-0.4c-0.1-0.2-0.2-0.4-0.3-0.8l-0.9-2.7c-0.1-0.3-0.2-0.6-0.3-0.9
	c-0.1-0.2-0.2-0.4-0.2-0.5c0.2,0,0.3-0.1,0.5-0.1c0.2-0.1,0.4-0.1,0.5-0.2c0.1,0,0.1,0,0.2,0c0,0,0,0.1,0,0.2c0,0.1-0.1,0.1-0.1,0.2
	c0,0.1,0,0.1,0,0.2l0.1,0.3L14.3,33z M20.2,32.9L19,33.3l-0.4-1.2l1.2-0.4L20.2,32.9z M27.2,27.2c0.4-0.1,0.8-0.3,1.1-0.4
	c0.3-0.1,0.6-0.2,0.8-0.3l0.6,1.8L29,28.6l-0.3-1l-6.3,2l0.4,1.1L21.9,31l-0.6-1.9c0.3-0.1,0.6-0.2,0.9-0.3c0.4-0.1,0.8-0.2,1.3-0.4
	l2.9-0.9c0.1-0.2,0.1-0.4,0.2-0.6s0.1-0.5,0.1-0.7s0.1-0.4,0.1-0.6s0-0.3,0-0.5c0.2,0.1,0.3,0.1,0.5,0.1s0.3,0.1,0.5,0.1
	c0.1,0,0.1,0,0.1,0.1c0,0,0,0.1-0.1,0.2c0,0.1-0.1,0.2-0.2,0.5C27.5,26.3,27.4,26.7,27.2,27.2z M22.8,28.4c-0.1-0.1-0.1-0.2-0.2-0.3
	c-0.1-0.1-0.2-0.2-0.3-0.3c-0.1-0.1-0.2-0.2-0.3-0.3c-0.1-0.1-0.2-0.2-0.2-0.2l0.7-0.6c0.1,0.1,0.3,0.3,0.5,0.5s0.4,0.4,0.5,0.5
	L22.8,28.4z M26.4,32.3c-0.4,0.1-0.8,0.3-1.2,0.4c-0.4,0.1-0.7,0.2-1,0.3s-0.6,0.2-0.8,0.3c-0.3,0.1-0.5,0.2-0.7,0.3l-0.3-0.9
	c0.2-0.1,0.5-0.1,0.8-0.2c0.3-0.1,0.5-0.2,0.8-0.2c0.3-0.1,0.6-0.2,1-0.3c0.4-0.1,0.7-0.2,1.2-0.4L26,30.9c0.5-0.4,0.9-0.8,1.1-1.1
	l-2.2,0.7c-0.6,0.2-1,0.3-1.3,0.5l-0.2-0.7c0.2,0,0.4-0.1,0.5-0.1c0.2,0,0.3-0.1,0.5-0.2s0.4-0.1,0.6-0.2s0.5-0.2,0.8-0.3
	c0.4-0.1,0.7-0.2,1-0.3c0.3-0.1,0.5-0.2,0.7-0.2c0.2-0.1,0.3-0.1,0.5-0.2c0.1,0,0.2-0.1,0.3-0.1l0.3,0.9c-0.1,0-0.2,0.1-0.3,0.1
	c-0.1,0.1-0.2,0.1-0.3,0.2c-0.1,0.1-0.3,0.2-0.5,0.4c-0.2,0.2-0.4,0.4-0.6,0.7l0.1,0.3c0.8-0.3,1.4-0.5,1.9-0.7s1-0.4,1.4-0.5
	l0.3,0.9c-0.4,0.1-0.9,0.3-1.5,0.4c-0.5,0.2-1.2,0.4-2,0.6l0.5,1.4c0,0.1,0.1,0.3,0.1,0.4c0,0.1-0.1,0.2-0.2,0.3s-0.2,0.2-0.4,0.4
	c-0.2,0.1-0.5,0.3-0.8,0.5c-0.1-0.3-0.3-0.6-0.6-0.9c0.3-0.1,0.5-0.1,0.6-0.2c0.2,0,0.3-0.1,0.3-0.2c0.1-0.1,0.1-0.1,0.1-0.2
	c0-0.1,0-0.1,0-0.2L26.4,32.3z M24.8,27.5c0-0.1-0.1-0.2-0.2-0.3c-0.1-0.1-0.1-0.2-0.2-0.3c-0.1-0.1-0.1-0.2-0.2-0.3
	c-0.1-0.1-0.1-0.2-0.2-0.3l0.8-0.4c0.1,0.1,0.2,0.3,0.4,0.5c0.1,0.2,0.3,0.4,0.4,0.6L24.8,27.5z M33.5,28.6L32.3,29l-0.4-1.2
	l1.2-0.4L33.5,28.6z M41.7,21.1c0,0.3,0.1,0.6,0.2,0.8l1.5,5.5c0.1,0.2,0.1,0.4,0.1,0.6s0,0.4-0.2,0.5c-0.1,0.2-0.3,0.4-0.6,0.5
	c-0.3,0.2-0.6,0.4-1.1,0.6c0-0.1-0.1-0.1-0.1-0.2c-0.1-0.1-0.1-0.2-0.2-0.3c-0.1-0.1-0.1-0.2-0.2-0.3c-0.1-0.1-0.2-0.2-0.2-0.2
	c0.4-0.1,0.6-0.2,0.9-0.2c0.2-0.1,0.4-0.2,0.5-0.3c0.1-0.1,0.2-0.2,0.2-0.4c0-0.1,0-0.3-0.1-0.5l-1.4-5c-0.9,0.3-1.6,0.5-2.2,0.7
	c-0.6,0.2-1.1,0.4-1.5,0.5s-0.8,0.3-1.1,0.4s-0.6,0.2-0.9,0.3L35,23.2c0.4-0.1,0.9-0.2,1.5-0.4c0.5-0.2,1.2-0.4,1.9-0.6
	c0.8-0.3,1.4-0.5,2-0.7C41,21.4,41.4,21.2,41.7,21.1z M41.3,26.4c-0.3,0.2-0.6,0.4-0.9,0.7c-0.3,0.3-0.7,0.5-1.1,0.8
	c-0.4,0.3-0.7,0.6-1.1,0.9c-0.4,0.3-0.7,0.6-1,0.9c-0.1-0.1-0.2-0.3-0.4-0.5s-0.3-0.3-0.4-0.5c0.4-0.2,0.9-0.5,1.3-0.8
	c0.4-0.3,0.8-0.6,1.2-0.8c0.4-0.3,0.8-0.6,1.1-0.8c0.4-0.3,0.7-0.5,1-0.7c0,0.2,0.1,0.3,0.1,0.4S41.2,26.3,41.3,26.4z M39.1,26.1
	c-0.2-0.1-0.3-0.2-0.5-0.3c-0.2-0.1-0.4-0.2-0.6-0.3c-0.2-0.1-0.4-0.2-0.7-0.2c-0.2-0.1-0.4-0.1-0.7-0.2l0.4-0.9
	c0.4,0.1,0.8,0.3,1.3,0.4c0.4,0.2,0.9,0.3,1.3,0.5L39.1,26.1z M29.6,9.8l-1-0.5l-1.8,3.5l1,0.5L29.6,9.8z M21,12.3l-1.2-3.7L18.7,9
	l1.2,3.7L21,12.3z M35.7,17.6l-0.4-1.1l-3.7,1.2l0.4,1.1L35.7,17.6z M15.3,16.5l-3.5-1.8l-0.5,1l3.5,1.8L15.3,16.5z M30.3,35.6
	c0.1,1.1-0.5,2.1-1.6,2.5c-1,0.3-2.2-0.1-2.7-1.1l-1.1,0.4c0.7,1.5,2.5,2.3,4.2,1.8c1.7-0.5,2.6-2.2,2.3-3.9L30.3,35.6z M14.6,24.5
	l-0.4-1.1l-3.7,1.2l0.4,1.1L14.6,24.5z M18.1,25.9l1.2-0.4c-0.6-0.6-1.2-1.4-1.4-2.3c-1-3,0.7-6.2,3.7-7.2s6.3,0.7,7.2,3.7
	c0.3,0.9,0.3,1.8,0.2,2.7l1.2-0.4c0.1-0.9,0-1.8-0.3-2.7c-1.2-3.6-5.1-5.6-8.7-4.4s-5.6,5.1-4.4,8.7C17.1,24.5,17.5,25.3,18.1,25.9z
	 M5,30.2C1.6,19.7,7.3,8.4,17.8,5c2-0.7,4.1-1,6.2-1c8.6,0,16.2,5.4,18.9,13.6l0.9-0.3C40.9,8.5,32.8,3,24,3c-2.2,0-4.3,0.3-6.5,1
	C6.5,7.6,0.5,19.4,4,30.5L5,30.2z M41.8,33.1c-2.3,4.6-6.4,8.2-11.6,9.9c-2,0.7-4.1,1-6.2,1c-3.2,0-6.2-0.7-8.9-2.1l-1.3,0.4
	C16.9,44.1,20.4,45,24,45c2.2,0,4.3-0.3,6.5-1c5.8-1.9,10.3-6.1,12.6-11.3L41.8,33.1z"/>
</svg>
