<?xml version="1.0" encoding="utf-8"?>
<!-- Generator: Adobe Illustrator 21.0.0, SVG Export Plug-In . SVG Version: 6.00 Build 0)  -->
<svg version="1.1" id="图层_1" xmlns="http://www.w3.org/2000/svg" xmlns:xlink="http://www.w3.org/1999/xlink" x="0px" y="0px"
	 viewBox="0 0 24 24" style="enable-background:new 0 0 24 24;" xml:space="preserve">
<style type="text/css">
	.st0{fill:none;}
</style>
<path d="M19,3H5C3.9,3,3,3.9,3,5v14c0,1.1,0.9,2,2,2h14c1.1,0,2-0.9,2-2V5C21,3.9,20.1,3,19,3z M19.4,18.9c0,0.3-0.2,0.5-0.5,0.5
	H5.1c-0.3,0-0.5-0.2-0.5-0.5V5.1c0-0.3,0.2-0.5,0.5-0.5h13.7c0.3,0,0.5,0.2,0.5,0.5V18.9z"/>
<rect x="7" y="10" width="2" height="7"/>
<rect x="11" y="7" width="2" height="10"/>
<rect x="15" y="13" width="2" height="4"/>
<path class="st0" d="M0,0h24v24H0V0z"/>
</svg>
